<?xml version="1.0" encoding="UTF-8" standalone="no"?>
<!-- Created with Inkscape (http://www.inkscape.org/) -->

<svg
   xmlns:ns0="http://www.iki.fi/pav/software/textext/"
   xmlns:dc="http://purl.org/dc/elements/1.1/"
   xmlns:cc="http://creativecommons.org/ns#"
   xmlns:rdf="http://www.w3.org/1999/02/22-rdf-syntax-ns#"
   xmlns:svg="http://www.w3.org/2000/svg"
   xmlns="http://www.w3.org/2000/svg"
   xmlns:sodipodi="http://sodipodi.sourceforge.net/DTD/sodipodi-0.dtd"
   xmlns:inkscape="http://www.inkscape.org/namespaces/inkscape"
   width="210mm"
   height="297mm"
   viewBox="0 0 210 297"
   version="1.1"
   id="svg1204"
   inkscape:version="0.92.2 (5c3e80d, 2017-08-06)"
   sodipodi:docname="pll.svg">
  <sodipodi:namedview
     id="base"
     pagecolor="#ffffff"
     bordercolor="#666666"
     borderopacity="1.0"
     inkscape:pageopacity="0.0"
     inkscape:pageshadow="2"
     inkscape:zoom="0.7"
     inkscape:cx="677.35697"
     inkscape:cy="1184.3796"
     inkscape:document-units="mm"
     inkscape:current-layer="layer1"
     showgrid="false"
     inkscape:window-width="2493"
     inkscape:window-height="1025"
     inkscape:window-x="67"
     inkscape:window-y="27"
     inkscape:window-maximized="1" />
  <defs
     id="defs1198">
    <inkscape:path-effect
       effect="bspline"
       id="path-effect4472"
       is_visible="true"
       weight="33.333333"
       steps="2"
       helper_size="0"
       apply_no_weight="true"
       apply_with_weight="true"
       only_selected="false" />
    <marker
       inkscape:stockid="Arrow2Mend"
       orient="auto"
       refY="0.0"
       refX="0.0"
       id="marker4378"
       style="overflow:visible;"
       inkscape:isstock="true">
      <path
         id="path4376"
         style="fill-rule:evenodd;stroke-width:0.625;stroke-linejoin:round;stroke:#000000;stroke-opacity:1;fill:#000000;fill-opacity:1"
         d="M 8.7185878,4.0337352 L -2.2072895,0.016013256 L 8.7185884,-4.0017078 C 6.9730900,-1.6296469 6.9831476,1.6157441 8.7185878,4.0337352 z "
         transform="scale(0.6) rotate(180) translate(0,0)" />
    </marker>
    <inkscape:path-effect
       effect="bspline"
       id="path-effect4374"
       is_visible="true"
       weight="33.333333"
       steps="2"
       helper_size="0"
       apply_no_weight="true"
       apply_with_weight="true"
       only_selected="false" />
    <inkscape:path-effect
       effect="bspline"
       id="path-effect4370"
       is_visible="true"
       weight="33.333333"
       steps="2"
       helper_size="0"
       apply_no_weight="true"
       apply_with_weight="true"
       only_selected="false" />
    <marker
       inkscape:isstock="true"
       style="overflow:visible;"
       id="marker3684"
       refX="0.0"
       refY="0.0"
       orient="auto"
       inkscape:stockid="Arrow2Mend">
      <path
         transform="scale(0.6) rotate(180) translate(0,0)"
         d="M 8.7185878,4.0337352 L -2.2072895,0.016013256 L 8.7185884,-4.0017078 C 6.9730900,-1.6296469 6.9831476,1.6157441 8.7185878,4.0337352 z "
         style="fill-rule:evenodd;stroke-width:0.625;stroke-linejoin:round;stroke:#000000;stroke-opacity:1;fill:#000000;fill-opacity:1"
         id="path3682" />
    </marker>
    <inkscape:path-effect
       only_selected="false"
       apply_with_weight="true"
       apply_no_weight="true"
       helper_size="0"
       steps="2"
       weight="33.333333"
       is_visible="true"
       id="path-effect3680"
       effect="bspline" />
    <marker
       inkscape:stockid="Arrow2Mend"
       orient="auto"
       refY="0.0"
       refX="0.0"
       id="Arrow2Mend"
       style="overflow:visible;"
       inkscape:isstock="true">
      <path
         id="path1823"
         style="fill-rule:evenodd;stroke-width:0.625;stroke-linejoin:round;stroke:#000000;stroke-opacity:1;fill:#000000;fill-opacity:1"
         d="M 8.7185878,4.0337352 L -2.2072895,0.016013256 L 8.7185884,-4.0017078 C 6.9730900,-1.6296469 6.9831476,1.6157441 8.7185878,4.0337352 z "
         transform="scale(0.6) rotate(180) translate(0,0)" />
    </marker>
    <marker
       inkscape:stockid="Arrow1Send"
       orient="auto"
       refY="0.0"
       refX="0.0"
       id="Arrow1Send"
       style="overflow:visible;"
       inkscape:isstock="true">
      <path
         id="path1811"
         d="M 0.0,0.0 L 5.0,-5.0 L -12.5,0.0 L 5.0,5.0 L 0.0,0.0 z "
         style="fill-rule:evenodd;stroke:#000000;stroke-width:1pt;stroke-opacity:1;fill:#000000;fill-opacity:1"
         transform="scale(0.2) rotate(180) translate(6,0)" />
    </marker>
    <inkscape:path-effect
       effect="bspline"
       id="path-effect1794"
       is_visible="true"
       weight="33.333333"
       steps="2"
       helper_size="0"
       apply_no_weight="true"
       apply_with_weight="true"
       only_selected="false" />
    <marker
       inkscape:stockid="Arrow2Mend"
       orient="auto"
       refY="0"
       refX="0"
       id="Arrow2Mend-3"
       style="overflow:visible"
       inkscape:isstock="true">
      <path
         id="path1823-6"
         style="fill:#000000;fill-opacity:1;fill-rule:evenodd;stroke:#000000;stroke-width:0.625;stroke-linejoin:round;stroke-opacity:1"
         d="M 8.7185878,4.0337352 -2.2072895,0.01601326 8.7185884,-4.0017078 c -1.7454984,2.3720609 -1.7354408,5.6174519 -6e-7,8.035443 z"
         transform="scale(-0.6)"
         inkscape:connector-curvature="0" />
    </marker>
    <inkscape:path-effect
       effect="bspline"
       id="path-effect1794-7"
       is_visible="true"
       weight="33.333333"
       steps="2"
       helper_size="0"
       apply_no_weight="true"
       apply_with_weight="true"
       only_selected="false" />
    <marker
       inkscape:stockid="Arrow2Mend"
       orient="auto"
       refY="0"
       refX="0"
       id="Arrow2Mend-3-2"
       style="overflow:visible"
       inkscape:isstock="true">
      <path
         id="path1823-6-7"
         style="fill:#000000;fill-opacity:1;fill-rule:evenodd;stroke:#000000;stroke-width:0.625;stroke-linejoin:round;stroke-opacity:1"
         d="M 8.7185878,4.0337352 -2.2072895,0.01601326 8.7185884,-4.0017078 c -1.7454984,2.3720609 -1.7354408,5.6174519 -6e-7,8.035443 z"
         transform="scale(-0.6)"
         inkscape:connector-curvature="0" />
    </marker>
    <inkscape:path-effect
       effect="bspline"
       id="path-effect1794-7-0"
       is_visible="true"
       weight="33.333333"
       steps="2"
       helper_size="0"
       apply_no_weight="true"
       apply_with_weight="true"
       only_selected="false" />
    <marker
       inkscape:isstock="true"
       style="overflow:visible"
       id="marker3684-3"
       refX="0"
       refY="0"
       orient="auto"
       inkscape:stockid="Arrow2Mend">
      <path
         inkscape:connector-curvature="0"
         transform="scale(-0.6)"
         d="M 8.7185878,4.0337352 -2.2072895,0.01601326 8.7185884,-4.0017078 c -1.7454984,2.3720609 -1.7354408,5.6174519 -6e-7,8.035443 z"
         style="fill:#000000;fill-opacity:1;fill-rule:evenodd;stroke:#000000;stroke-width:0.625;stroke-linejoin:round;stroke-opacity:1"
         id="path3682-7" />
    </marker>
    <inkscape:path-effect
       only_selected="false"
       apply_with_weight="true"
       apply_no_weight="true"
       helper_size="0"
       steps="2"
       weight="33.333333"
       is_visible="true"
       id="path-effect3680-5"
       effect="bspline" />
  </defs>
  <metadata
     id="metadata1201">
    <rdf:RDF>
      <cc:Work
         rdf:about="">
        <dc:format>image/svg+xml</dc:format>
        <dc:type
           rdf:resource="http://purl.org/dc/dcmitype/StillImage" />
        <dc:title />
      </cc:Work>
    </rdf:RDF>
  </metadata>
  <g
     id="layer1"
     inkscape:groupmode="layer"
     inkscape:label="Layer 1">
    <rect
       inkscape:export-ydpi="410"
       inkscape:export-xdpi="410"
       ry="0.73499119"
       rx="0.73499119"
       y="19.397453"
       x="56.191391"
       height="13.629366"
       width="33.805096"
       id="rect1769"
       style="fill:#e6e6e6;fill-opacity:1;fill-rule:nonzero;stroke:#0d0d0d;stroke-width:0.69999999;stroke-miterlimit:4;stroke-dasharray:0.7, 0.7;stroke-dashoffset:0;stroke-opacity:1;paint-order:markers stroke fill" />
    <path
       inkscape:export-ydpi="410"
       inkscape:export-xdpi="410"
       style="fill:none;stroke:#000000;stroke-width:0.69999999;stroke-linecap:butt;stroke-linejoin:miter;stroke-miterlimit:4;stroke-dasharray:none;stroke-opacity:1;marker-end:url(#Arrow2Mend)"
       d="m 15.619709,26.573763 c 0,0 39.39895,0 39.39895,0"
       id="path1792"
       inkscape:connector-curvature="0"
       inkscape:path-effect="#path-effect1794"
       inkscape:original-d="m 15.619709,26.573763 h 39.39895" />
    <g
       inkscape:export-ydpi="410"
       inkscape:export-xdpi="410"
       ns0:jacobian_sqrt="1.198987"
       ns0:alignment="middle center"
       ns0:scale="3.39870201657"
       ns0:preamble="/home/newtonis/.config/inkscape/extensions/default_packages.tex"
       ns0:text="$50\\;Mhz\\;Clock\\;Int.\\;Osc.$"
       ns0:pdfconverter="pstoedit"
       ns0:texconverter="pdflatex"
       ns0:version="0.8.1"
       word-spacing="normal"
       letter-spacing="normal"
       font-size-adjust="none"
       font-stretch="normal"
       font-weight="normal"
       font-variant="normal"
       font-style="normal"
       stroke-miterlimit="10.433"
       xml:space="preserve"
       transform="matrix(1.198987,0,0,-1.198987,-162.03623,809.74772)"
       id="g2457"
       style="font-style:normal;font-variant:normal;font-weight:normal;font-stretch:normal;letter-spacing:normal;word-spacing:normal;text-anchor:start;fill:none;fill-opacity:1;fill-rule:evenodd;stroke:#000000;stroke-linecap:butt;stroke-linejoin:miter;stroke-miterlimit:10.43299961;stroke-dasharray:none;stroke-dashoffset:0;stroke-opacity:1"><path
         id="path2421"
         d="m 152.19049,659.78159 v 0.0854 l -0.008,0.0854 -0.008,0.0854 -0.0155,0.0776 -0.0155,0.0854 -0.0155,0.0776 -0.0233,0.0776 -0.0233,0.0776 -0.0311,0.0776 -0.0311,0.0699 -0.0388,0.0699 -0.0388,0.0699 -0.0388,0.0699 -0.0388,0.0621 -0.0466,0.0621 -0.0466,0.0543 -0.0543,0.0621 -0.0543,0.0466 -0.0543,0.0543 -0.0543,0.0466 -0.0621,0.0466 -0.0621,0.0388 -0.0621,0.0388 -0.0621,0.0311 -0.0699,0.031 -0.0699,0.0311 -0.0699,0.0233 -0.0699,0.0155 -0.0776,0.0155 -0.0776,0.0155 h -0.0699 l -0.0854,0.008 c -0.36485,0 -0.69865,-0.1242 -0.97812,-0.3959 v 1.50599 c 0.15526,-0.0466 0.41144,-0.10092 0.65985,-0.10092 0.94707,0 1.49047,0.69866 1.49047,0.79958 0,0.0466 -0.0233,0.0854 -0.0776,0.0854 -0.008,0 -0.0233,0 -0.0621,-0.0233 -0.15525,-0.0699 -0.53563,-0.22512 -1.05574,-0.22512 -0.30276,0 -0.65985,0.0543 -1.0247,0.21736 -0.0621,0.0233 -0.0776,0.0233 -0.0932,0.0233 -0.0776,0 -0.0776,-0.0621 -0.0776,-0.18631 v -2.28228 c 0,-0.13974 0,-0.20184 0.10868,-0.20184 0.0543,0 0.0699,0.0233 0.10091,0.0699 0.0854,0.1242 0.37262,0.5434 0.99365,0.5434 0.40367,0 0.59774,-0.35709 0.65984,-0.49682 0.12421,-0.28723 0.13973,-0.58222 0.13973,-0.97036 0,-0.2717 0,-0.72971 -0.18631,-1.05575 -0.1863,-0.30275 -0.47353,-0.50459 -0.82286,-0.50459 -0.56669,0 -1.00917,0.41143 -1.14114,0.86944 0.0233,-0.008 0.0466,-0.0155 0.13197,-0.0155 0.25617,0 0.38814,0.19407 0.38814,0.37261 0,0.18631 -0.13197,0.38038 -0.38814,0.38038 -0.10868,0 -0.38038,-0.0543 -0.38038,-0.41143 0,-0.65984 0.53564,-1.40507 1.40508,-1.40507 0.89273,0 1.68454,0.73747 1.68454,1.71559 z"
         inkscape:connector-curvature="0"
         style="fill:#000000;stroke-width:0" /><path
         id="path2423"
         d="m 156.14178,660.6976 v 0.11645 0.11644 l -0.008,0.11644 v 0.11645 l -0.008,0.11644 -0.008,0.10868 -0.0155,0.11644 -0.0155,0.11645 -0.0155,0.10868 -0.0233,0.11644 -0.0233,0.10868 -0.031,0.11644 -0.031,0.10868 -0.0388,0.10868 -0.0466,0.10868 -0.0233,0.0543 -0.0233,0.0543 c -0.35709,0.73747 -0.99365,0.86168 -1.31193,0.86168 -0.46577,0 -1.03246,-0.20184 -1.35073,-0.91602 -0.24841,-0.53564 -0.28723,-1.13338 -0.28723,-1.75441 0,-0.57445 0.031,-1.26534 0.34933,-1.85532 0.3338,-0.62103 0.90049,-0.77628 1.28087,-0.77628 v 0.16302 c -0.30275,0 -0.76076,0.19407 -0.90049,0.9393 -0.0854,0.45801 -0.0854,1.17219 -0.0854,1.62244 0,0.49682 0,1.00141 0.0621,1.4206 0.1475,0.91602 0.72971,0.98589 0.92378,0.98589 0.25618,0 0.76076,-0.13974 0.90826,-0.9005 0.0776,-0.43472 0.0776,-1.01693 0.0776,-1.50599 0,-0.57445 0,-1.10233 -0.0854,-1.59139 -0.11644,-0.73747 -0.55892,-0.97035 -0.90049,-0.97035 v 0 -0.16302 c 0.41143,0 1.00141,0.15525 1.34298,0.89272 0.24841,0.52788 0.28722,1.13338 0.28722,1.73888 z"
         inkscape:connector-curvature="0"
         style="fill:#000000;stroke-width:0" /><path
         id="path2425"
         d="m 165.76773,662.91002 v 0.0233 l 0.008,0.0233 0.008,0.0233 0.008,0.0233 0.008,0.0155 v 0.0233 l 0.008,0.0155 0.008,0.0233 0.008,0.0155 0.008,0.0155 0.0155,0.0155 0.008,0.0155 0.008,0.008 0.0155,0.0155 0.0155,0.008 0.0155,0.0155 0.0155,0.008 0.0155,0.008 0.0233,0.008 0.0233,0.008 0.0233,0.008 h 0.008 l 0.0155,0.008 h 0.0155 0.0155 l 0.0155,0.008 h 0.0155 0.0155 l 0.0155,0.008 h 0.0155 0.0155 0.0233 0.0155 l 0.0233,0.008 h 0.0233 0.0155 0.0233 0.0233 0.0233 0.0233 0.031 0.0233 0.0233 c 0.17855,0 0.24841,0 0.24841,0.15526 0,0.0854 -0.0776,0.0854 -0.2096,0.0854 h -1.01693 c -0.20183,0 -0.2096,0 -0.30275,-0.1475 l -2.82568,-4.39378 -0.60551,4.36273 c -0.0233,0.17855 -0.0388,0.17855 -0.24064,0.17855 h -1.05575 c -0.1475,0 -0.23289,0 -0.23289,-0.1475 0,-0.0932 0.0699,-0.0932 0.21736,-0.0932 0.10092,0 0.24841,-0.008 0.3338,-0.0155 0.12421,-0.0155 0.17079,-0.0388 0.17079,-0.1242 0,-0.031 -0.008,-0.0543 -0.0311,-0.1475 l -0.97812,-3.92024 c -0.0776,-0.31052 -0.2096,-0.55893 -0.83839,-0.58222 -0.0388,0 -0.13973,-0.008 -0.13973,-0.14749 0,-0.0621 0.0466,-0.0931 0.10868,-0.0931 0.24841,0 0.52011,0.031 0.77628,0.031 0.26394,0 0.5434,-0.031 0.79181,-0.031 0.0388,0 0.13973,0 0.13973,0.15525 0,0.0854 -0.0776,0.0854 -0.13973,0.0854 -0.43472,0.008 -0.52011,0.16302 -0.52011,0.34157 0,0.0543 0.008,0.0932 0.031,0.17855 l 1.04799,4.1997 h 0.008 l 0.66761,-4.78192 c 0.0155,-0.0932 0.0233,-0.17854 0.11644,-0.17854 0.0854,0 0.13197,0.0854 0.17078,0.13973 l 3.12844,4.88284 h 0.008 l -1.11009,-4.41707 c -0.0776,-0.30275 -0.0932,-0.36486 -0.70642,-0.36486 -0.13197,0 -0.21736,0 -0.21736,-0.14749 0,-0.0931 0.0932,-0.0931 0.11644,-0.0931 0.21736,0 0.74524,0.031 0.9626,0.031 0.31827,0 0.65208,-0.031 0.97035,-0.031 0.0466,0 0.1475,0 0.1475,0.15525 0,0.0854 -0.0699,0.0854 -0.21736,0.0854 -0.28723,0 -0.50459,0 -0.50459,0.13974 0,0.0311 0,0.0466 0.0388,0.1863 z"
         inkscape:connector-curvature="0"
         style="fill:#000000;stroke-width:0" /><path
         id="path2427"
         d="m 169.1601,663.5 v 0 0 0 0.008 0 0 0 0.008 0 0.008 0 0 0.008 0 l -0.008,0.008 v 0 0.008 0 l -0.008,0.008 v 0 l -0.008,0.008 v 0 0 0 l -0.008,0.008 v 0 0 h -0.008 v 0 0.008 h -0.008 v 0 0 h -0.008 v 0 h -0.008 v 0 l -0.008,0.008 v 0 h -0.008 v 0 h -0.008 v 0 h -0.008 v 0 c -0.17854,0 -0.74523,-0.0621 -0.94707,-0.0776 -0.0621,-0.008 -0.14749,-0.0155 -0.14749,-0.15526 0,-0.0932 0.0699,-0.0932 0.18631,-0.0932 0.37261,0 0.38814,-0.0543 0.38814,-0.13197 l -0.0233,-0.15526 -1.12561,-4.44035 c -0.031,-0.10868 -0.031,-0.12421 -0.031,-0.17079 0,-0.17854 0.15525,-0.20959 0.22512,-0.20959 0.1242,0 0.24841,0.0854 0.28722,0.19407 l 0.1475,0.58998 0.17078,0.69089 c 0.0466,0.17078 0.0932,0.34157 0.13197,0.52011 0.0155,0.0466 0.0776,0.30275 0.0854,0.34933 0.0233,0.0621 0.26394,0.49682 0.52788,0.70642 0.17078,0.12421 0.40366,0.2717 0.73747,0.2717 0.3338,0 0.41919,-0.26394 0.41919,-0.5434 0,-0.41919 -0.29499,-1.25758 -0.4813,-1.72335 -0.0621,-0.17855 -0.10091,-0.2717 -0.10091,-0.42696 0,-0.36486 0.2717,-0.62879 0.63655,-0.62879 0.72971,0 1.01694,1.12561 1.01694,1.18771 0,0.0776 -0.0699,0.0776 -0.0932,0.0776 -0.0776,0 -0.0776,-0.031 -0.11644,-0.13973 -0.11644,-0.41143 -0.36486,-0.96259 -0.79181,-0.96259 -0.13197,0 -0.18631,0.0776 -0.18631,0.25617 0,0.19407 0.0699,0.38038 0.13973,0.55116 0.12421,0.32604 0.47353,1.24982 0.47353,1.69231 0,0.50458 -0.31051,0.83062 -0.89272,0.83062 -0.48906,0 -0.85392,-0.24064 -1.14114,-0.59774 z"
         inkscape:connector-curvature="0"
         style="fill:#000000;stroke-width:0" /><path
         id="path2429"
         d="m 172.42826,658.87333 0.0388,0.0388 0.0388,0.0388 0.0311,0.0388 0.0388,0.0388 0.0311,0.0388 0.0388,0.0311 0.031,0.0311 0.031,0.0388 0.0311,0.031 0.0311,0.0311 0.031,0.0233 0.031,0.0311 0.0233,0.0311 0.031,0.0233 0.0543,0.0543 0.0543,0.0466 0.0466,0.0466 0.0543,0.0466 0.0466,0.0466 0.10092,0.0854 0.0543,0.0388 0.0543,0.0466 c 0,0.008 0.47353,0.41919 0.753,0.69865 0.73747,0.71419 0.90825,1.0868 0.90825,1.11786 0,0.0776 -0.0699,0.0776 -0.0854,0.0776 -0.0543,0 -0.0776,-0.0155 -0.11644,-0.0854 -0.23289,-0.37261 -0.39591,-0.49682 -0.58222,-0.49682 -0.18631,0 -0.27946,0.11644 -0.3959,0.24841 -0.1475,0.17855 -0.27947,0.3338 -0.52788,0.3338 -0.58221,0 -0.9393,-0.72194 -0.9393,-0.88496 0,-0.0388 0.0233,-0.0854 0.0932,-0.0854 0.0699,0 0.0854,0.0388 0.10092,0.0854 0.14749,0.35709 0.59774,0.36485 0.65984,0.36485 0.16302,0 0.31052,-0.0543 0.4813,-0.11644 0.31051,-0.11644 0.3959,-0.11644 0.59774,-0.11644 -0.27946,-0.33381 -0.92378,-0.88497 -1.07128,-1.00918 l -0.69865,-0.64431 c -0.52788,-0.52011 -0.79958,-0.9626 -0.79958,-1.01694 0,-0.0699 0.0776,-0.0699 0.0932,-0.0699 0.0621,0 0.0776,0.0155 0.1242,0.10091 0.17855,0.26394 0.41143,0.47354 0.65985,0.47354 0.17854,0 0.25617,-0.0699 0.45024,-0.29499 0.13197,-0.16302 0.2717,-0.27946 0.49682,-0.27946 0.76076,0 1.21101,0.97812 1.21101,1.18771 0,0.0388 -0.031,0.0776 -0.0932,0.0776 -0.0699,0 -0.0854,-0.0466 -0.10868,-0.10091 -0.17855,-0.50459 -0.67537,-0.65208 -0.92378,-0.65208 -0.15526,0 -0.29499,0.0466 -0.45801,0.10091 -0.26394,0.10092 -0.38038,0.13197 -0.5434,0.13197 -0.0155,0 -0.13973,0 -0.2096,-0.0233 z"
         inkscape:connector-curvature="0"
         style="fill:#000000;stroke-width:0" /><path
         id="path2431"
         d="m 153.55507,656.46985 v 0 0.003 0 0 0.003 0 0 0.003 0 0.003 h -0.003 v 0 0.003 0 l -0.003,0.003 v 0 0 0.003 h -0.003 v 0 l -0.003,0.003 v 0 h -0.003 v 0.003 h -0.003 v 0 0 h -0.003 v 0 0 h -0.003 v 0.003 0 h -0.003 v 0 0 h -0.003 v 0 h -0.003 c -0.009,0 -0.0126,-0.003 -0.0471,-0.0377 l -0.21696,-0.24212 c -0.0283,0.044 -0.17294,0.27985 -0.52196,0.27985 -0.69804,0 -1.40552,-0.69176 -1.40552,-1.41495 0,-0.51567 0.37103,-0.85526 0.85212,-0.85526 0.27041,0 0.50938,0.12263 0.67603,0.26727 0.29242,0.25469 0.34587,0.54083 0.34587,0.55026 0,0.0315 -0.0315,0.0315 -0.0377,0.0315 -0.0189,0 -0.0346,-0.006 -0.0409,-0.0315 -0.0283,-0.0912 -0.10062,-0.31129 -0.31758,-0.49367 -0.21696,-0.17608 -0.41505,-0.22953 -0.57856,-0.22953 -0.27984,0 -0.61315,0.16351 -0.61315,0.65088 0,0.17922 0.066,0.68546 0.38047,1.0502 0.19181,0.22011 0.48423,0.37733 0.76408,0.37733 0.32072,0 0.50623,-0.24211 0.50623,-0.60371 0,-0.12264 -0.009,-0.12578 -0.009,-0.15722 0,-0.0314 0.0346,-0.0314 0.0471,-0.0314 0.0409,0 0.0409,0.006 0.0566,0.0629 z"
         inkscape:connector-curvature="0"
         style="fill:#000000;stroke-width:0" /><path
         id="path2433"
         d="m 154.44493,656.43212 v 0 h -0.003 v 0 0.003 0 0 0 0.003 0 0.003 0 0 0.003 0 l -0.003,0.003 v 0 0.003 0 l -0.003,0.003 v 0 l -0.003,0.003 v 0 0 0 l -0.003,0.003 v 0 0 h -0.003 v 0 0.003 h -0.003 v 0 0 h -0.003 v 0 h -0.003 v 0 l -0.003,0.003 v 0 h -0.003 v 0 h -0.003 v 0 h -0.003 -0.003 c -0.0692,0 -0.29871,-0.0252 -0.38047,-0.0314 -0.0251,-0.003 -0.0597,-0.006 -0.0597,-0.066 0,-0.0346 0.0314,-0.0346 0.0786,-0.0346 0.15093,0 0.15408,-0.0283 0.15408,-0.0535 l -0.009,-0.0629 -0.39619,-1.55958 c -0.009,-0.0346 -0.0157,-0.0566 -0.0157,-0.10691 0,-0.17923 0.13834,-0.28614 0.28613,-0.28614 0.10376,0 0.18237,0.0598 0.23582,0.17294 0.0566,0.11948 0.0943,0.30186 0.0943,0.30814 0,0.0315 -0.0283,0.0315 -0.0377,0.0315 -0.0315,0 -0.0346,-0.0126 -0.044,-0.0566 -0.0535,-0.20438 -0.1132,-0.38989 -0.23897,-0.38989 -0.0943,0 -0.0943,0.10061 -0.0943,0.14463 0,0.0755 0.003,0.0912 0.0189,0.15093 z"
         inkscape:connector-curvature="0"
         style="fill:#000000;stroke-width:0" /><path
         id="path2435"
         d="m 156.10199,655.15238 v 0.0283 l -0.003,0.0315 -0.003,0.0283 -0.003,0.0283 -0.006,0.0252 -0.006,0.0283 -0.006,0.0252 -0.009,0.0252 -0.009,0.022 -0.0126,0.022 -0.0126,0.022 -0.0126,0.022 -0.0126,0.022 -0.0157,0.0189 -0.0157,0.0189 -0.0158,0.0157 -0.0188,0.0189 -0.0157,0.0157 -0.0189,0.0126 -0.022,0.0157 -0.0189,0.0126 -0.022,0.009 -0.022,0.0126 -0.022,0.009 -0.022,0.009 -0.022,0.006 -0.0252,0.006 -0.0251,0.006 -0.0251,0.003 -0.0252,0.003 h -0.0251 l -0.0252,0.003 c -0.42134,0 -0.84268,-0.44335 -0.84268,-0.88984 0,-0.30815 0.21067,-0.52511 0.5031,-0.52511 l 0.003,0.066 c -0.1352,0 -0.27355,0.0975 -0.27355,0.34273 0,0.15092 0.0817,0.49051 0.18237,0.64773 0.15721,0.24211 0.33644,0.28928 0.42449,0.28928 0.17922,0 0.27355,-0.15093 0.27355,-0.33959 0,-0.11948 -0.0629,-0.44964 -0.17923,-0.65088 -0.11005,-0.18237 -0.28298,-0.28927 -0.42763,-0.28927 v 0 l -0.003,-0.066 c 0.41505,0 0.83953,0.43077 0.83953,0.88671 z"
         inkscape:connector-curvature="0"
         style="fill:#000000;stroke-width:0" /><path
         id="path2437"
         d="m 157.39117,655.48567 h -0.009 -0.009 -0.009 -0.006 -0.009 l -0.009,-0.003 h -0.003 -0.006 -0.003 l -0.003,-0.003 h -0.006 -0.003 l -0.006,-0.003 h -0.003 l -0.003,-0.003 -0.006,-0.003 h -0.003 l -0.003,-0.003 -0.003,-0.003 h -0.006 l -0.003,-0.003 -0.003,-0.003 -0.006,-0.003 -0.003,-0.003 -0.003,-0.006 -0.006,-0.003 c -0.0503,-0.0471 -0.0566,-0.10062 -0.0566,-0.12264 0,-0.0755 0.0566,-0.1069 0.11634,-0.1069 0.0912,0 0.17608,0.0723 0.17608,0.19809 0,0.15407 -0.14778,0.27041 -0.37103,0.27041 -0.42134,0 -0.83954,-0.44649 -0.83954,-0.88984 0,-0.27985 0.18237,-0.52511 0.50938,-0.52511 0.4465,0 0.71062,0.33016 0.71062,0.36789 0,0.0189 -0.0188,0.0409 -0.0377,0.0409 -0.0157,0 -0.022,-0.006 -0.0409,-0.0314 -0.2484,-0.31128 -0.588,-0.31128 -0.62572,-0.31128 -0.1981,0 -0.283,0.15407 -0.283,0.34273 0,0.12577 0.0629,0.43077 0.1698,0.62257 0.0975,0.17924 0.27041,0.31444 0.44021,0.31444 0.1069,0 0.22639,-0.0409 0.27041,-0.12578 z"
         inkscape:connector-curvature="0"
         style="fill:#000000;stroke-width:0" /><path
         id="path2439"
         d="m 158.40679,656.43212 v 0 0 0 0.003 0 0 0 0.003 h -0.003 v 0.003 0 0 0.003 0 0.003 h -0.003 v 0.003 0 l -0.003,0.003 v 0 0.003 h -0.003 v 0 0 l -0.003,0.003 v 0 0 0 h -0.003 v 0.003 0 h -0.003 v 0 h -0.003 v 0 h -0.003 v 0 0.003 h -0.003 v 0 h -0.003 -0.003 v 0 h -0.003 v 0 c -0.0723,0 -0.30185,-0.0252 -0.38361,-0.0314 -0.0252,-0.003 -0.0597,-0.006 -0.0597,-0.0629 0,-0.0377 0.0283,-0.0377 0.0755,-0.0377 0.15093,0 0.15722,-0.022 0.15722,-0.0535 l -0.009,-0.0629 -0.45593,-1.79856 c -0.0126,-0.044 -0.0126,-0.0503 -0.0126,-0.0692 0,-0.0723 0.0629,-0.0849 0.0912,-0.0849 0.0409,0 0.088,0.0283 0.10691,0.0629 0.0157,0.0283 0.15721,0.60685 0.17608,0.68547 0.10691,-0.009 0.36474,-0.0598 0.36474,-0.26728 0,-0.0188 0,-0.0314 -0.009,-0.0629 -0.006,-0.0377 -0.0126,-0.0755 -0.0126,-0.11005 0,-0.18552 0.12578,-0.30815 0.28614,-0.30815 0.0943,0 0.17922,0.0472 0.2484,0.16351 0.0786,0.13835 0.1132,0.31129 0.1132,0.31757 0,0.0315 -0.0283,0.0315 -0.0377,0.0315 -0.0314,0 -0.0346,-0.0126 -0.044,-0.0566 -0.0629,-0.22953 -0.13521,-0.38989 -0.27356,-0.38989 -0.0566,0 -0.10062,0.0345 -0.10062,0.14778 0,0.0535 0.0157,0.12577 0.0252,0.17608 0.0157,0.0535 0.0157,0.066 0.0157,0.0943 0,0.20438 -0.1981,0.29557 -0.46536,0.33016 0.0975,0.0566 0.19809,0.15721 0.27041,0.22953 0.15092,0.16665 0.29242,0.30186 0.4465,0.30186 0.0189,0 0.022,0 0.0283,-0.003 0.0377,-0.006 0.0409,-0.006 0.066,-0.0252 0.006,-0.003 0.006,-0.006 0.0126,-0.0126 -0.15093,-0.009 -0.17923,-0.13206 -0.17923,-0.1698 0,-0.0503 0.0346,-0.11005 0.11949,-0.11005 0.0817,0 0.17293,0.0692 0.17293,0.1918 0,0.0943 -0.0723,0.1981 -0.21381,0.1981 -0.088,0 -0.22954,-0.0252 -0.45593,-0.2767 -0.10691,-0.11948 -0.22954,-0.24212 -0.34902,-0.28928 z"
         inkscape:connector-curvature="0"
         style="fill:#000000;stroke-width:0" /><path
         id="path2441"
         d="m 161.27757,656.19315 0.003,0.009 0.003,0.009 v 0.009 l 0.003,0.009 0.003,0.006 0.003,0.009 0.003,0.006 0.003,0.009 0.003,0.006 0.003,0.006 0.003,0.006 0.006,0.006 0.003,0.003 0.006,0.006 0.006,0.003 0.006,0.006 0.006,0.003 0.009,0.003 0.009,0.003 0.009,0.003 0.009,0.003 h 0.006 l 0.006,0.003 h 0.003 0.006 l 0.006,0.003 h 0.009 0.006 l 0.006,0.003 h 0.006 0.009 0.006 0.009 l 0.009,0.003 h 0.009 0.006 0.009 0.0126 0.009 0.009 0.0126 0.009 0.0126 c 0.0755,0 0.10062,0 0.10062,0.0597 0,0.0377 -0.0346,0.0377 -0.0471,0.0377 -0.0912,0 -0.32387,-0.009 -0.41506,-0.009 -0.0943,0 -0.32386,0.009 -0.41819,0.009 -0.022,0 -0.0629,0 -0.0629,-0.0629 0,-0.0346 0.0283,-0.0346 0.0881,-0.0346 0.13206,0 0.21695,0 0.21695,-0.0598 0,-0.0157 0,-0.022 -0.006,-0.0503 l -0.42134,-1.68221 c -0.0283,-0.11635 -0.0377,-0.14779 -0.28614,-0.14779 -0.0723,0 -0.10061,0 -0.10061,-0.0629 0,-0.0346 0.0377,-0.0346 0.0471,-0.0346 0.0912,0 0.32072,0.0126 0.41191,0.0126 0.0912,0 0.32387,-0.0126 0.4182,-0.0126 0.0251,0 0.0629,0 0.0629,0.0598 0,0.0377 -0.0252,0.0377 -0.0943,0.0377 -0.0566,0 -0.0723,0 -0.1352,0.006 -0.066,0.006 -0.0786,0.0189 -0.0786,0.0535 0,0.0251 0.006,0.0503 0.0126,0.0723 z"
         inkscape:connector-curvature="0"
         style="fill:#000000;stroke-width:0" /><path
         id="path2443"
         d="m 162.00391,654.48263 v -0.003 -0.006 l -0.003,-0.003 v -0.006 l -0.003,-0.009 v -0.009 l -0.003,-0.009 -0.003,-0.0126 -0.003,-0.009 v -0.009 l -0.003,-0.003 v -0.006 -0.003 l -0.003,-0.006 v -0.003 -0.003 -0.006 l -0.003,-0.003 v -0.003 -0.003 -0.003 -0.003 -0.003 h -0.003 v -0.003 -0.003 c 0,-0.0535 0.044,-0.0818 0.0912,-0.0818 0.0377,0 0.0943,0.0252 0.11634,0.0849 0.003,0.006 0.0409,0.15407 0.0597,0.23268 l 0.0692,0.27984 c 0.0188,0.0692 0.0377,0.13835 0.0535,0.21067 0.0126,0.0535 0.0377,0.14464 0.0409,0.15722 0.0471,0.0943 0.21382,0.38047 0.51253,0.38047 0.13834,0 0.16664,-0.11634 0.16664,-0.22011 0,-0.1918 -0.15092,-0.59427 -0.20123,-0.72634 -0.0283,-0.0723 -0.0314,-0.11005 -0.0314,-0.14464 0,-0.14778 0.1069,-0.25469 0.25469,-0.25469 0.29557,0 0.41191,0.45593 0.41191,0.48108 0,0.0314 -0.0283,0.0314 -0.0377,0.0314 -0.0314,0 -0.0314,-0.0126 -0.0471,-0.0566 -0.0629,-0.21382 -0.16665,-0.3899 -0.32073,-0.3899 -0.0503,0 -0.0755,0.0315 -0.0755,0.10377 0,0.0786 0.0283,0.15407 0.0566,0.22324 0.0597,0.16351 0.19181,0.50938 0.19181,0.68546 0,0.21068 -0.13521,0.33645 -0.35846,0.33645 -0.28298,0 -0.43706,-0.20123 -0.49051,-0.27356 -0.0157,0.17609 -0.14465,0.27356 -0.28928,0.27356 -0.14464,0 -0.20124,-0.12263 -0.23583,-0.17922 -0.0503,-0.10691 -0.0912,-0.28929 -0.0912,-0.30186 0,-0.0314 0.0314,-0.0314 0.0377,-0.0314 0.0283,0 0.0346,0.003 0.0535,0.0692 0.0503,0.22325 0.11319,0.37418 0.22639,0.37418 0.0629,0 0.0975,-0.0409 0.0975,-0.14464 0,-0.066 -0.009,-0.10062 -0.0503,-0.26098 z"
         inkscape:connector-curvature="0"
         style="fill:#000000;stroke-width:0" /><path
         id="path2445"
         d="m 164.25526,655.54856 h 0.29557 c 0.0629,0 0.0943,0 0.0943,0.0629 0,0.0346 -0.0315,0.0346 -0.088,0.0346 h -0.2767 c 0.11319,0.44336 0.12891,0.50624 0.12891,0.52196 0,0.0535 -0.0377,0.0849 -0.0912,0.0849 -0.009,0 -0.0975,-0.003 -0.12578,-0.11005 l -0.12263,-0.49681 h -0.29556 c -0.0629,0 -0.0943,0 -0.0943,-0.0597 0,-0.0377 0.0252,-0.0377 0.0912,-0.0377 h 0.27356 c -0.22639,-0.88671 -0.23897,-0.94016 -0.23897,-0.99675 0,-0.1698 0.11949,-0.28614 0.28928,-0.28614 0.32072,0 0.49995,0.45593 0.49995,0.48108 0,0.0314 -0.0251,0.0314 -0.0377,0.0314 -0.0283,0 -0.0315,-0.0126 -0.0471,-0.044 -0.13521,-0.32701 -0.30186,-0.40247 -0.40877,-0.40247 -0.066,0 -0.0975,0.0409 -0.0975,0.14463 0,0.0755 0.006,0.0975 0.0189,0.15093 z"
         inkscape:connector-curvature="0"
         style="fill:#000000;stroke-width:0" /><path
         id="path2447"
         d="m 165.3432,654.46377 v 0.009 0.009 l -0.003,0.006 v 0.009 l -0.003,0.006 -0.003,0.009 v 0.006 l -0.003,0.009 -0.003,0.006 -0.006,0.006 -0.003,0.006 -0.003,0.009 -0.006,0.006 -0.003,0.006 -0.006,0.003 -0.006,0.006 -0.006,0.006 -0.006,0.006 -0.006,0.003 -0.006,0.006 -0.006,0.003 -0.006,0.003 -0.006,0.006 -0.009,0.003 -0.006,0.003 h -0.006 l -0.009,0.003 -0.006,0.003 h -0.009 l -0.009,0.003 h -0.006 -0.009 c -0.0912,0 -0.16665,-0.0755 -0.16665,-0.16665 0,-0.0912 0.0755,-0.16665 0.16665,-0.16665 0.0912,0 0.16665,0.0755 0.16665,0.16665 z"
         inkscape:connector-curvature="0"
         style="fill:#000000;stroke-width:0" /><path
         id="path2449"
         d="m 168.79883,655.66176 v 0.044 l -0.003,0.0471 -0.006,0.044 -0.006,0.044 -0.009,0.0409 -0.009,0.044 -0.0126,0.0377 -0.0126,0.0409 -0.0157,0.0377 -0.0157,0.0346 -0.0189,0.0377 -0.0188,0.0315 -0.022,0.0346 -0.022,0.0315 -0.0251,0.0283 -0.0252,0.0283 -0.0283,0.0283 -0.0283,0.0252 -0.0315,0.022 -0.0314,0.022 -0.0315,0.022 -0.0315,0.0189 -0.0346,0.0189 -0.0377,0.0157 -0.0377,0.0126 -0.0377,0.0126 -0.0377,0.009 -0.0409,0.009 -0.0409,0.006 -0.0409,0.006 h -0.0409 l -0.044,0.003 -0.0189,-0.0786 c 0.2547,0 0.53769,-0.17608 0.53769,-0.64145 0,-0.22324 -0.0849,-0.71062 -0.39305,-1.09422 -0.15093,-0.1918 -0.40876,-0.37418 -0.67288,-0.37418 v 0 c -0.30815,0 -0.52825,0.25155 -0.52825,0.66346 0,0.13835 0.044,0.59428 0.28299,0.95902 0.21696,0.32387 0.5251,0.48737 0.7735,0.48737 l 0.0189,0.0786 c -0.67917,0 -1.36778,-0.71062 -1.36778,-1.43696 0,-0.51882 0.35217,-0.83325 0.8018,-0.83325 0.6666,0 1.36465,0.68232 1.36465,1.43067 z"
         inkscape:connector-curvature="0"
         style="fill:#000000;stroke-width:0" /><path
         id="path2451"
         d="m 170.18234,655.46681 h -0.009 -0.006 l -0.009,-0.003 h -0.006 l -0.009,-0.003 -0.006,-0.003 h -0.006 l -0.006,-0.003 -0.009,-0.003 -0.006,-0.003 -0.006,-0.006 -0.006,-0.003 -0.003,-0.003 -0.006,-0.006 -0.006,-0.003 -0.006,-0.006 -0.003,-0.003 -0.006,-0.006 -0.003,-0.003 -0.003,-0.006 -0.003,-0.006 -0.006,-0.006 -0.003,-0.006 v -0.006 l -0.003,-0.006 -0.003,-0.006 -0.003,-0.006 v -0.006 -0.006 l -0.003,-0.006 v -0.006 -0.006 c 0,-0.044 0.0283,-0.088 0.0975,-0.088 0.0692,0 0.14464,0.0503 0.14464,0.17294 0,0.1415 -0.13521,0.27041 -0.37418,0.27041 -0.41505,0 -0.52825,-0.32072 -0.52825,-0.45907 0,-0.24211 0.22954,-0.28927 0.32073,-0.30814 0.16351,-0.0314 0.32701,-0.066 0.32701,-0.23583 0,-0.0817 -0.0723,-0.34587 -0.44964,-0.34587 -0.044,0 -0.28299,0 -0.35531,0.16664 0.11948,-0.0157 0.19495,0.0786 0.19495,0.16665 0,0.0723 -0.0471,0.10691 -0.1132,0.10691 -0.0817,0 -0.17608,-0.0629 -0.17608,-0.20438 0,-0.17923 0.17923,-0.30186 0.44649,-0.30186 0.50939,0 0.63202,0.37732 0.63202,0.51882 0,0.11005 -0.0598,0.18866 -0.0975,0.22639 -0.0849,0.088 -0.17608,0.10377 -0.31443,0.13206 -0.1132,0.0252 -0.23897,0.0471 -0.23897,0.18552 0,0.0912 0.0755,0.28299 0.35216,0.28299 0.0786,0 0.23583,-0.022 0.283,-0.14464 z"
         inkscape:connector-curvature="0"
         style="fill:#000000;stroke-width:0" /><path
         id="path2453"
         d="m 171.66646,655.48567 h -0.009 -0.009 -0.009 -0.009 -0.009 l -0.006,-0.003 h -0.006 -0.003 -0.003 l -0.006,-0.003 h -0.003 -0.006 l -0.003,-0.003 h -0.003 l -0.006,-0.003 -0.003,-0.003 h -0.003 l -0.006,-0.003 -0.003,-0.003 h -0.003 l -0.003,-0.003 -0.006,-0.003 -0.003,-0.003 -0.003,-0.003 -0.006,-0.006 -0.003,-0.003 c -0.0503,-0.0471 -0.0566,-0.10062 -0.0566,-0.12264 0,-0.0755 0.0566,-0.1069 0.11634,-0.1069 0.0912,0 0.17609,0.0723 0.17609,0.19809 0,0.15407 -0.14779,0.27041 -0.37103,0.27041 -0.42134,0 -0.83954,-0.44649 -0.83954,-0.88984 0,-0.27985 0.18237,-0.52511 0.50623,-0.52511 0.44965,0 0.71377,0.33016 0.71377,0.36789 0,0.0189 -0.0189,0.0409 -0.0377,0.0409 -0.0157,0 -0.022,-0.006 -0.0409,-0.0314 -0.2484,-0.31128 -0.59113,-0.31128 -0.62886,-0.31128 -0.19495,0 -0.27985,0.15407 -0.27985,0.34273 0,0.12577 0.0629,0.43077 0.16665,0.62257 0.0975,0.17924 0.27041,0.31444 0.44335,0.31444 0.10691,0 0.2264,-0.0409 0.27041,-0.12578 z"
         inkscape:connector-curvature="0"
         style="fill:#000000;stroke-width:0" /><path
         id="path2455"
         d="m 172.38338,654.46377 v 0.009 l -0.003,0.009 v 0.006 0.009 l -0.003,0.006 -0.003,0.009 -0.003,0.006 -0.003,0.009 -0.003,0.006 -0.003,0.006 -0.003,0.006 -0.003,0.009 -0.006,0.006 -0.006,0.006 -0.003,0.003 -0.006,0.006 -0.006,0.006 -0.006,0.006 -0.006,0.003 -0.006,0.006 -0.006,0.003 -0.006,0.003 -0.006,0.006 -0.009,0.003 -0.006,0.003 h -0.009 l -0.006,0.003 -0.009,0.003 h -0.006 l -0.009,0.003 h -0.009 -0.006 c -0.0912,0 -0.16665,-0.0755 -0.16665,-0.16665 0,-0.0912 0.0755,-0.16665 0.16665,-0.16665 0.0912,0 0.16665,0.0755 0.16665,0.16665 z"
         inkscape:connector-curvature="0"
         style="fill:#000000;stroke-width:0" /></g>    <path
       inkscape:export-ydpi="410"
       inkscape:export-xdpi="410"
       style="fill:none;stroke:#000000;stroke-width:0.69999993;stroke-linecap:butt;stroke-linejoin:miter;stroke-miterlimit:4;stroke-dasharray:none;stroke-opacity:1;marker-end:url(#Arrow2Mend-3)"
       d="m 89.95144,26.564703 c 0,0 14.36717,0 14.36717,0"
       id="path1792-5"
       inkscape:connector-curvature="0"
       inkscape:path-effect="#path-effect1794-7"
       inkscape:original-d="m 89.95144,26.564703 h 14.36717" />
    <g
       inkscape:export-ydpi="410"
       inkscape:export-xdpi="410"
       style="font-style:normal;font-variant:normal;font-weight:normal;font-stretch:normal;letter-spacing:normal;word-spacing:normal;text-anchor:start;fill:none;fill-opacity:1;fill-rule:evenodd;stroke:#000000;stroke-width:1.31820571;stroke-linecap:butt;stroke-linejoin:miter;stroke-miterlimit:10.43299961;stroke-dasharray:none;stroke-dashoffset:0;stroke-opacity:1"
       id="g3427"
       transform="matrix(0.90955987,0,0,-0.90955983,-57.809301,611.984)"
       xml:space="preserve"
       stroke-miterlimit="10.433"
       font-style="normal"
       font-variant="normal"
       font-weight="normal"
       font-stretch="normal"
       font-size-adjust="none"
       letter-spacing="normal"
       word-spacing="normal"
       ns0:version="0.8.1"
       ns0:texconverter="pdflatex"
       ns0:pdfconverter="pstoedit"
       ns0:text="$25.125Mhz$"
       ns0:preamble="/home/newtonis/.config/inkscape/extensions/default_packages.tex"
       ns0:scale="3.39870201657"
       ns0:alignment="middle center"
       inkscapeversion="0.92.2"
       ns0:jacobian_sqrt="1.198987"><path
         style="fill:#000000;stroke-width:0"
         inkscape:connector-curvature="0"
         d="m 149.98,658 1.06,1.02 c 1.55,1.37 2.15,1.91 2.15,2.9 0,1.14 -0.9,1.93 -2.12,1.93 -1.12,0 -1.86,-0.91 -1.86,-1.8 0,-0.55 0.5,-0.55 0.53,-0.55 0.17,0 0.52,0.12 0.52,0.52 0,0.26 -0.18,0.52 -0.53,0.52 -0.08,0 -0.1,0 -0.13,-0.01 0.23,0.64 0.77,1.01 1.35,1.01 0.9,0 1.33,-0.8 1.33,-1.62 0,-0.79 -0.5,-1.58 -1.04,-2.19 l -1.92,-2.13 c -0.11,-0.11 -0.11,-0.13 -0.11,-0.37 h 3.7 l 0.28,1.73 h -0.25 c -0.05,-0.3 -0.12,-0.73 -0.22,-0.88 C 152.65,658 151.99,658 151.77,658 Z"
         id="path3409" /><path
         style="fill:#000000;stroke-width:0"
         inkscape:connector-curvature="0"
         d="m 158.17,659.23 v 0.11 l -0.01,0.11 -0.01,0.11 -0.02,0.1 -0.02,0.11 -0.02,0.1 -0.03,0.1 -0.03,0.1 -0.04,0.1 -0.04,0.09 -0.05,0.09 -0.04,0.09 -0.06,0.09 -0.05,0.08 -0.06,0.08 -0.06,0.07 -0.07,0.08 -0.07,0.06 -0.07,0.07 -0.07,0.06 -0.08,0.06 -0.08,0.05 -0.08,0.05 -0.08,0.04 -0.09,0.04 -0.09,0.04 -0.09,0.03 -0.09,0.02 -0.1,0.02 -0.1,0.02 h -0.09 l -0.1,0.01 c -0.48,0 -0.91,-0.16 -1.27,-0.51 v 1.94 c 0.2,-0.06 0.53,-0.13 0.85,-0.13 1.22,0 1.92,0.9 1.92,1.03 0,0.06 -0.03,0.11 -0.1,0.11 -0.01,0 -0.03,0 -0.08,-0.03 -0.2,-0.09 -0.69,-0.29 -1.35,-0.29 -0.4,0 -0.86,0.07 -1.33,0.28 -0.08,0.03 -0.1,0.03 -0.12,0.03 -0.1,0 -0.1,-0.08 -0.1,-0.24 v -2.94 c 0,-0.18 0,-0.26 0.14,-0.26 0.07,0 0.09,0.03 0.13,0.09 0.11,0.16 0.48,0.7 1.29,0.7 0.51,0 0.76,-0.46 0.84,-0.64 0.16,-0.37 0.18,-0.75 0.18,-1.25 0,-0.35 0,-0.94 -0.24,-1.36 -0.24,-0.39 -0.6,-0.65 -1.06,-0.65 -0.73,0 -1.3,0.53 -1.47,1.12 0.03,-0.01 0.06,-0.02 0.17,-0.02 0.33,0 0.5,0.25 0.5,0.48 0,0.24 -0.17,0.49 -0.5,0.49 -0.14,0 -0.49,-0.07 -0.49,-0.53 0,-0.85 0.69,-1.81 1.81,-1.81 1.15,0 2.17,0.95 2.17,2.21 z"
         id="path3411" /><path
         style="fill:#000000;stroke-width:0"
         inkscape:connector-curvature="0"
         d="m 160.59,657.76 v 0.03 0.03 l -0.01,0.02 v 0.03 l -0.01,0.02 v 0.03 l -0.01,0.02 -0.01,0.03 -0.01,0.02 -0.01,0.02 -0.02,0.02 -0.01,0.03 -0.02,0.02 -0.01,0.02 -0.02,0.01 -0.02,0.02 -0.01,0.02 -0.02,0.02 -0.02,0.01 -0.02,0.02 -0.03,0.01 -0.02,0.01 -0.02,0.02 -0.02,0.01 -0.03,0.01 h -0.02 l -0.03,0.01 -0.02,0.01 h -0.03 l -0.03,0.01 h -0.02 -0.03 c -0.29,0 -0.53,-0.24 -0.53,-0.53 0,-0.29 0.24,-0.53 0.53,-0.53 0.29,0 0.53,0.24 0.53,0.53 z"
         id="path3413" /><path
         style="fill:#000000;stroke-width:0"
         inkscape:connector-curvature="0"
         d="m 164.37,663.59 v 0.01 0.01 0.02 0.01 0 0.01 0.01 0.01 0.01 0.01 0.01 0.01 0 0.01 0.01 0 0.01 0.01 0.01 l -0.01,0.01 v 0.01 0.01 l -0.01,0.01 v 0 0.01 l -0.01,0.01 h -0.01 v 0.01 h -0.01 l -0.01,0.01 h -0.01 v 0 h -0.01 v 0 h -0.01 v 0 l -0.01,0.01 h -0.01 v 0 h -0.01 -0.01 v 0 h -0.01 -0.01 -0.01 -0.01 -0.01 -0.01 -0.01 -0.01 -0.01 -0.01 c -0.61,-0.63 -1.49,-0.63 -1.81,-0.63 v -0.31 c 0.2,0 0.79,0 1.31,0.25 v -5.14 c 0,-0.36 -0.03,-0.48 -0.93,-0.48 h -0.32 v -0.31 c 0.35,0.04 1.22,0.04 1.62,0.04 0.39,0 1.26,0 1.61,-0.04 v 0.31 h -0.32 c -0.9,0 -0.93,0.11 -0.93,0.48 z"
         id="path3415" /><path
         style="fill:#000000;stroke-width:0"
         inkscape:connector-curvature="0"
         d="m 167.69,658 1.06,1.02 c 1.55,1.37 2.15,1.91 2.15,2.9 0,1.14 -0.9,1.93 -2.11,1.93 -1.13,0 -1.87,-0.91 -1.87,-1.8 0,-0.55 0.5,-0.55 0.53,-0.55 0.17,0 0.52,0.12 0.52,0.52 0,0.26 -0.18,0.52 -0.53,0.52 -0.08,0 -0.1,0 -0.13,-0.01 0.23,0.64 0.77,1.01 1.35,1.01 0.91,0 1.33,-0.8 1.33,-1.62 0,-0.79 -0.5,-1.58 -1.04,-2.19 l -1.92,-2.13 c -0.11,-0.11 -0.11,-0.13 -0.11,-0.37 h 3.7 l 0.28,1.73 h -0.25 c -0.05,-0.3 -0.12,-0.73 -0.22,-0.88 C 170.36,658 169.7,658 169.49,658 Z"
         id="path3417" /><path
         style="fill:#000000;stroke-width:0"
         inkscape:connector-curvature="0"
         d="m 175.88,659.23 v 0.11 l -0.01,0.11 -0.01,0.11 -0.02,0.1 -0.02,0.11 -0.02,0.1 -0.03,0.1 -0.03,0.1 -0.04,0.1 -0.04,0.09 -0.05,0.09 -0.04,0.09 -0.06,0.09 -0.05,0.08 -0.06,0.08 -0.06,0.07 -0.07,0.08 -0.06,0.06 -0.08,0.07 -0.07,0.06 -0.08,0.06 -0.08,0.05 -0.08,0.05 -0.08,0.04 -0.09,0.04 -0.09,0.04 -0.09,0.03 -0.09,0.02 -0.1,0.02 -0.09,0.02 h -0.1 l -0.1,0.01 c -0.48,0 -0.91,-0.16 -1.27,-0.51 v 1.94 c 0.2,-0.06 0.53,-0.13 0.85,-0.13 1.22,0 1.92,0.9 1.92,1.03 0,0.06 -0.03,0.11 -0.1,0.11 -0.01,0 -0.03,0 -0.08,-0.03 -0.2,-0.09 -0.68,-0.29 -1.35,-0.29 -0.4,0 -0.86,0.07 -1.33,0.28 -0.08,0.03 -0.1,0.03 -0.12,0.03 -0.1,0 -0.1,-0.08 -0.1,-0.24 v -2.94 c 0,-0.18 0,-0.26 0.14,-0.26 0.07,0 0.09,0.03 0.13,0.09 0.11,0.16 0.48,0.7 1.29,0.7 0.52,0 0.77,-0.46 0.85,-0.64 0.16,-0.37 0.17,-0.75 0.17,-1.25 0,-0.35 0,-0.94 -0.23,-1.36 -0.24,-0.39 -0.61,-0.65 -1.07,-0.65 -0.73,0 -1.3,0.53 -1.47,1.12 0.03,-0.01 0.06,-0.02 0.17,-0.02 0.33,0 0.5,0.25 0.5,0.48 0,0.24 -0.17,0.49 -0.5,0.49 -0.14,0 -0.49,-0.07 -0.49,-0.53 0,-0.85 0.69,-1.81 1.81,-1.81 1.16,0 2.17,0.95 2.17,2.21 z"
         id="path3419" /><path
         style="fill:#000000;stroke-width:0"
         inkscape:connector-curvature="0"
         d="m 185.62,663.26 0.01,0.03 0.01,0.03 v 0.03 l 0.01,0.03 0.01,0.02 0.01,0.03 0.01,0.02 0.01,0.03 0.01,0.02 0.01,0.02 0.01,0.02 0.01,0.02 0.02,0.01 0.01,0.02 0.02,0.01 0.02,0.02 0.02,0.01 0.03,0.01 0.02,0.01 0.03,0.01 0.03,0.01 h 0.02 l 0.02,0.01 h 0.01 0.02 l 0.02,0.01 h 0.02 0.02 l 0.02,0.01 h 0.03 0.02 0.02 0.03 l 0.02,0.01 h 0.03 0.03 0.03 0.03 0.03 0.03 0.03 0.03 0.04 c 0.23,0 0.32,0 0.32,0.2 0,0.11 -0.1,0.11 -0.27,0.11 h -1.32 c -0.26,0 -0.27,0 -0.39,-0.19 l -3.64,-5.66 -0.78,5.62 c -0.02,0.23 -0.05,0.23 -0.3,0.23 h -1.37 c -0.19,0 -0.3,0 -0.3,-0.19 0,-0.12 0.09,-0.12 0.29,-0.12 0.13,0 0.31,-0.01 0.43,-0.02 0.16,-0.02 0.22,-0.05 0.22,-0.16 0,-0.04 -0.01,-0.07 -0.04,-0.19 l -1.27,-5.05 c -0.1,-0.4 -0.27,-0.72 -1.08,-0.75 -0.05,0 -0.18,-0.01 -0.18,-0.19 0,-0.08 0.07,-0.12 0.14,-0.12 0.32,0 0.67,0.04 1,0.04 0.34,0 0.7,-0.04 1.03,-0.04 0.05,0 0.18,0 0.18,0.2 0,0.11 -0.11,0.11 -0.18,0.11 -0.57,0.01 -0.68,0.21 -0.68,0.44 0,0.07 0.01,0.12 0.04,0.23 l 1.36,5.41 h 0.01 l 0.85,-6.16 c 0.02,-0.12 0.03,-0.23 0.15,-0.23 0.11,0 0.17,0.11 0.22,0.18 l 4.03,6.29 h 0.01 l -1.42,-5.69 c -0.1,-0.39 -0.12,-0.47 -0.91,-0.47 -0.17,0 -0.28,0 -0.28,-0.19 0,-0.12 0.12,-0.12 0.15,-0.12 0.28,0 0.96,0.04 1.24,0.04 0.4,0 0.83,-0.04 1.24,-0.04 0.06,0 0.19,0 0.19,0.2 0,0.11 -0.09,0.11 -0.28,0.11 -0.37,0 -0.65,0 -0.65,0.18 0,0.04 0,0.06 0.05,0.24 z"
         id="path3421" /><path
         style="fill:#000000;stroke-width:0"
         inkscape:connector-curvature="0"
         d="m 190,664.02 v 0 0 0 0.01 0 0 0 0.01 0 0.01 0 h -0.01 v 0.01 0 0.01 0 l -0.01,0.01 v 0 0.01 h -0.01 v 0.01 h -0.01 v 0 0 0.01 h -0.01 v 0 0 h -0.01 v 0.01 0 h -0.01 v 0 0 h -0.01 v 0 h -0.01 v 0.01 h -0.01 v 0 h -0.01 v 0 h -0.01 v 0 h -0.01 c -0.23,0 -0.96,-0.08 -1.22,-0.1 -0.08,-0.01 -0.19,-0.02 -0.19,-0.2 0,-0.12 0.09,-0.12 0.24,-0.12 0.48,0 0.5,-0.07 0.5,-0.17 l -0.03,-0.2 -1.44,-5.72 c -0.05,-0.14 -0.05,-0.16 -0.05,-0.22 0,-0.23 0.2,-0.27 0.29,-0.27 0.16,0 0.32,0.11 0.37,0.25 l 0.19,0.76 0.22,0.89 c 0.06,0.22 0.12,0.44 0.17,0.67 0.02,0.06 0.1,0.39 0.11,0.45 0.03,0.08 0.34,0.64 0.68,0.91 0.22,0.16 0.53,0.35 0.96,0.35 0.43,0 0.54,-0.34 0.54,-0.7 0,-0.54 -0.38,-1.62 -0.62,-2.22 -0.08,-0.23 -0.13,-0.35 -0.13,-0.55 0,-0.47 0.35,-0.81 0.81,-0.81 0.94,0 1.31,1.45 1.31,1.53 0,0.1 -0.09,0.1 -0.12,0.1 -0.1,0 -0.1,-0.04 -0.15,-0.18 -0.15,-0.53 -0.47,-1.24 -1.02,-1.24 -0.17,0 -0.23,0.1 -0.23,0.33 0,0.25 0.09,0.49 0.18,0.71 0.16,0.42 0.6,1.61 0.6,2.18 0,0.65 -0.39,1.07 -1.14,1.07 -0.63,0 -1.11,-0.31 -1.48,-0.77 z"
         id="path3423" /><path
         style="fill:#000000;stroke-width:0"
         inkscape:connector-curvature="0"
         d="m 194.2,658.06 0.05,0.05 0.05,0.05 0.05,0.05 0.04,0.05 0.05,0.05 0.04,0.04 0.04,0.04 0.05,0.05 0.04,0.04 0.03,0.04 0.04,0.03 0.04,0.04 0.04,0.04 0.03,0.03 0.07,0.07 0.07,0.06 0.07,0.06 0.06,0.06 0.07,0.06 0.13,0.11 0.06,0.05 0.07,0.06 c 0,0.01 0.62,0.54 0.98,0.9 0.95,0.92 1.16,1.4 1.16,1.44 0,0.1 -0.09,0.1 -0.11,0.1 -0.07,0 -0.1,-0.02 -0.15,-0.11 -0.29,-0.48 -0.5,-0.64 -0.74,-0.64 -0.24,0 -0.36,0.15 -0.51,0.32 -0.19,0.23 -0.36,0.43 -0.69,0.43 -0.75,0 -1.21,-0.93 -1.21,-1.14 0,-0.05 0.03,-0.11 0.12,-0.11 0.09,0 0.11,0.05 0.13,0.11 0.19,0.46 0.77,0.47 0.85,0.47 0.21,0 0.4,-0.07 0.63,-0.15 0.4,-0.15 0.51,-0.15 0.77,-0.15 -0.36,-0.43 -1.2,-1.14 -1.39,-1.3 l -0.9,-0.83 c -0.68,-0.67 -1.02,-1.24 -1.02,-1.31 0,-0.09 0.1,-0.09 0.12,-0.09 0.08,0 0.09,0.02 0.16,0.13 0.22,0.34 0.52,0.61 0.84,0.61 0.23,0 0.33,-0.09 0.58,-0.38 0.17,-0.21 0.35,-0.36 0.64,-0.36 0.99,0 1.56,1.26 1.56,1.53 0,0.05 -0.03,0.1 -0.11,0.1 -0.09,0 -0.11,-0.06 -0.14,-0.13 -0.23,-0.65 -0.87,-0.84 -1.2,-0.84 -0.2,0 -0.38,0.06 -0.59,0.13 -0.34,0.13 -0.49,0.17 -0.7,0.17 -0.02,0 -0.18,0 -0.27,-0.03 z"
         id="path3425" /></g>    <path
       inkscape:export-ydpi="410"
       inkscape:export-xdpi="410"
       inkscape:original-d="m 95.620831,15.552527 v 8.548654"
       inkscape:path-effect="#path-effect3680"
       inkscape:connector-curvature="0"
       id="path3678"
       d="m 95.620831,15.552527 c 0,0 0,8.548654 0,8.548654"
       style="fill:none;stroke:#000000;stroke-width:0.26458332px;stroke-linecap:butt;stroke-linejoin:miter;stroke-opacity:1;marker-end:url(#marker3684)" />
    <g
       ns0:jacobian_sqrt="1.198987"
       inkscapeversion="0.92.2"
       ns0:alignment="middle center"
       ns0:scale="3.39870201657"
       ns0:preamble="/home/newtonis/.config/inkscape/extensions/default_packages.tex"
       ns0:text="$Screen\\;Module$"
       ns0:pdfconverter="pstoedit"
       ns0:texconverter="pdflatex"
       ns0:version="0.8.1"
       word-spacing="normal"
       letter-spacing="normal"
       font-size-adjust="none"
       font-stretch="normal"
       font-weight="normal"
       font-variant="normal"
       font-style="normal"
       stroke-miterlimit="10.433"
       xml:space="preserve"
       transform="matrix(0.87179158,0,0,-0.87179154,-21.320106,602.14427)"
       id="g3973"
       style="font-style:normal;font-variant:normal;font-weight:normal;font-stretch:normal;letter-spacing:normal;word-spacing:normal;text-anchor:start;fill:none;fill-opacity:1;fill-rule:evenodd;stroke:#000000;stroke-width:1.37531388;stroke-linecap:butt;stroke-linejoin:miter;stroke-miterlimit:10.43299961;stroke-dasharray:none;stroke-dashoffset:0;stroke-opacity:1"><path
         id="path3949"
         d="m 155.14,664.14 v 0 0.01 0 0 0.01 0 0 0.01 0 0.01 h -0.01 v 0 0.01 0 0.01 h -0.01 v 0 0.01 h -0.01 v 0 l -0.01,0.01 v 0 h -0.01 v 0.01 h -0.01 v 0 0 h -0.01 v 0 0 h -0.01 v 0.01 0 h -0.01 v 0 0 h -0.01 v 0 h -0.01 c -0.05,0 -0.05,-0.01 -0.18,-0.15 l -0.47,-0.57 c -0.26,0.47 -0.78,0.72 -1.43,0.72 -1.27,0 -2.46,-1.14 -2.46,-2.35 0,-0.8 0.53,-1.26 1.03,-1.41 l 1.07,-0.27 c 0.37,-0.09 0.92,-0.24 0.92,-1.06 0,-0.89 -0.82,-1.83 -1.8,-1.83 -0.64,0 -1.74,0.22 -1.74,1.46 0,0.23 0.05,0.47 0.06,0.53 0.01,0.04 0.02,0.05 0.02,0.07 0,0.1 -0.07,0.11 -0.12,0.11 -0.05,0 -0.07,-0.01 -0.1,-0.04 -0.04,-0.04 -0.6,-2.3 -0.6,-2.33 0,-0.06 0.05,-0.1 0.11,-0.1 0.05,0 0.06,0.01 0.18,0.14 l 0.49,0.57 c 0.43,-0.57 1.11,-0.71 1.68,-0.71 1.36,0 2.54,1.32 2.54,2.55 0,0.69 -0.34,1.02 -0.49,1.16 -0.23,0.23 -0.38,0.27 -1.27,0.5 -0.22,0.06 -0.58,0.16 -0.67,0.18 -0.27,0.09 -0.6,0.37 -0.6,0.9 0,0.81 0.79,1.65 1.74,1.65 0.83,0 1.44,-0.43 1.44,-1.54 0,-0.32 -0.04,-0.5 -0.04,-0.56 0,-0.01 0,-0.09 0.12,-0.09 0.1,0 0.11,0.02 0.14,0.19 z"
         inkscape:connector-curvature="0"
         style="fill:#000000;stroke-width:0" /><path
         id="path3951"
         d="m 159.35,661.01 h -0.03 -0.03 -0.03 -0.03 -0.03 L 159.18,661 h -0.02 -0.01 -0.02 l -0.01,-0.01 h -0.01 -0.02 l -0.01,-0.01 h -0.01 l -0.02,-0.01 -0.01,-0.01 h -0.01 l -0.02,-0.01 -0.01,-0.01 h -0.01 l -0.02,-0.01 -0.01,-0.01 -0.01,-0.01 -0.01,-0.01 -0.02,-0.02 -0.01,-0.01 c -0.16,-0.15 -0.18,-0.32 -0.18,-0.39 0,-0.24 0.18,-0.34 0.37,-0.34 0.29,0 0.56,0.23 0.56,0.63 0,0.49 -0.47,0.86 -1.18,0.86 -1.35,0 -2.67,-1.42 -2.67,-2.83 0,-0.89 0.58,-1.67 1.61,-1.67 1.43,0 2.27,1.05 2.27,1.17 0,0.06 -0.06,0.13 -0.12,0.13 -0.05,0 -0.07,-0.02 -0.13,-0.1 -0.79,-0.99 -1.88,-0.99 -2,-0.99 -0.62,0 -0.89,0.49 -0.89,1.09 0,0.4 0.19,1.37 0.53,1.98 0.31,0.57 0.86,1 1.41,1 0.34,0 0.72,-0.13 0.86,-0.4 z"
         inkscape:connector-curvature="0"
         style="fill:#000000;stroke-width:0" /><path
         id="path3953"
         d="m 160.59,657.82 v -0.01 l -0.01,-0.02 v -0.01 -0.02 l -0.01,-0.03 -0.01,-0.03 -0.01,-0.03 v -0.04 l -0.01,-0.03 -0.01,-0.03 v -0.01 -0.02 l -0.01,-0.01 v -0.02 -0.01 l -0.01,-0.01 v -0.02 -0.01 -0.01 l -0.01,-0.01 v -0.01 -0.01 -0.01 0 -0.01 -0.01 c 0,-0.17 0.14,-0.26 0.29,-0.26 0.12,0 0.3,0.08 0.37,0.27 0.02,0.04 0.36,1.39 0.4,1.57 0.07,0.33 0.26,1.03 0.32,1.3 0.03,0.12 0.31,0.59 0.55,0.81 0.08,0.07 0.37,0.33 0.8,0.33 0.26,0 0.41,-0.12 0.42,-0.12 -0.3,-0.05 -0.52,-0.29 -0.52,-0.55 0,-0.16 0.11,-0.35 0.38,-0.35 0.27,0 0.55,0.23 0.55,0.59 0,0.35 -0.32,0.65 -0.83,0.65 -0.65,0 -1.09,-0.49 -1.28,-0.77 -0.07,0.45 -0.43,0.77 -0.9,0.77 -0.46,0 -0.65,-0.39 -0.74,-0.57 -0.18,-0.34 -0.31,-0.93 -0.31,-0.96 0,-0.1 0.1,-0.1 0.12,-0.1 0.1,0 0.11,0.01 0.17,0.22 0.17,0.71 0.37,1.19 0.73,1.19 0.17,0 0.31,-0.08 0.31,-0.46 0,-0.21 -0.03,-0.32 -0.16,-0.83 z"
         inkscape:connector-curvature="0"
         style="fill:#000000;stroke-width:0" /><path
         id="path3955"
         d="m 166.34,659.53 h 0.03 0.03 0.03 0.04 0.04 0.04 0.04 l 0.04,0.01 h 0.05 0.04 0.05 l 0.05,0.01 h 0.05 l 0.05,0.01 0.1,0.01 0.11,0.01 0.11,0.01 0.11,0.02 0.11,0.02 0.1,0.03 0.06,0.01 0.05,0.02 0.05,0.01 0.05,0.02 0.05,0.02 0.05,0.02 c 0.69,0.3 0.74,0.88 0.74,1.02 0,0.44 -0.38,0.85 -1.06,0.85 v -0.22 c 0.46,0 0.73,-0.29 0.73,-0.63 0,-1.03 -1.59,-1.03 -2,-1.03 h -0.41 c 0.39,1.51 1.42,1.66 1.68,1.66 v 0.22 c -1.11,0 -2.62,-0.97 -2.62,-2.71 0,-1.01 0.59,-1.79 1.57,-1.79 1.43,0 2.26,1.05 2.26,1.17 0,0.06 -0.06,0.13 -0.12,0.13 -0.05,0 -0.07,-0.02 -0.13,-0.1 -0.78,-0.99 -1.87,-0.99 -1.99,-0.99 -0.78,0 -0.87,0.84 -0.87,1.16 0,0.12 0.01,0.42 0.16,1.03 z"
         inkscape:connector-curvature="0"
         style="fill:#000000;stroke-width:0" /><path
         id="path3957"
         d="m 170.98,659.53 h 0.03 0.03 0.03 0.04 0.03 0.04 0.04 l 0.05,0.01 h 0.04 0.05 0.05 l 0.05,0.01 h 0.05 l 0.05,0.01 0.1,0.01 0.11,0.01 0.11,0.01 0.11,0.02 0.11,0.02 0.1,0.03 0.06,0.01 0.05,0.02 0.05,0.01 0.05,0.02 0.05,0.02 0.04,0.02 c 0.7,0.3 0.75,0.88 0.75,1.02 0,0.44 -0.38,0.85 -1.07,0.85 v -0.22 c 0.47,0 0.74,-0.29 0.74,-0.63 0,-1.03 -1.59,-1.03 -2,-1.03 h -0.41 c 0.39,1.51 1.42,1.66 1.67,1.66 v 0.22 c -1.1,0 -2.61,-0.97 -2.61,-2.71 0,-1.01 0.59,-1.79 1.57,-1.79 1.42,0 2.26,1.05 2.26,1.17 0,0.06 -0.06,0.13 -0.12,0.13 -0.05,0 -0.07,-0.02 -0.13,-0.1 -0.79,-0.99 -1.87,-0.99 -1.99,-0.99 -0.78,0 -0.87,0.84 -0.87,1.16 0,0.12 0.01,0.42 0.16,1.03 z"
         inkscape:connector-curvature="0"
         style="fill:#000000;stroke-width:0" /><path
         id="path3959"
         d="m 174.63,657.82 v -0.01 l -0.01,-0.02 v -0.01 -0.02 l -0.01,-0.03 -0.01,-0.03 v -0.03 l -0.01,-0.04 -0.01,-0.03 -0.01,-0.03 v -0.01 -0.02 l -0.01,-0.01 v -0.02 -0.01 l -0.01,-0.01 v -0.02 -0.01 -0.01 -0.01 l -0.01,-0.01 v -0.01 -0.01 0 -0.01 -0.01 c 0,-0.17 0.14,-0.26 0.29,-0.26 0.12,0 0.3,0.08 0.37,0.27 0.01,0.02 0.13,0.49 0.19,0.74 l 0.22,0.89 c 0.06,0.22 0.12,0.44 0.17,0.67 0.04,0.17 0.12,0.46 0.13,0.5 0.15,0.3 0.67,1.21 1.62,1.21 0.45,0 0.54,-0.37 0.54,-0.7 0,-0.61 -0.49,-1.89 -0.65,-2.31 -0.09,-0.23 -0.1,-0.35 -0.1,-0.46 0,-0.47 0.35,-0.81 0.82,-0.81 0.94,0 1.31,1.45 1.31,1.53 0,0.1 -0.09,0.1 -0.12,0.1 -0.1,0 -0.1,-0.04 -0.15,-0.18 -0.2,-0.68 -0.53,-1.24 -1.02,-1.24 -0.17,0 -0.24,0.1 -0.24,0.33 0,0.25 0.09,0.49 0.18,0.71 0.19,0.52 0.61,1.62 0.61,2.18 0,0.67 -0.43,1.07 -1.15,1.07 -0.9,0 -1.38,-0.64 -1.55,-0.87 -0.05,0.56 -0.46,0.87 -0.92,0.87 -0.46,0 -0.65,-0.39 -0.75,-0.57 -0.16,-0.34 -0.3,-0.92 -0.3,-0.96 0,-0.1 0.1,-0.1 0.12,-0.1 0.1,0 0.11,0.01 0.17,0.22 0.17,0.71 0.37,1.19 0.73,1.19 0.2,0 0.31,-0.13 0.31,-0.46 0,-0.21 -0.03,-0.32 -0.16,-0.83 z"
         inkscape:connector-curvature="0"
         style="fill:#000000;stroke-width:0" /><path
         id="path3961"
         d="m 191.74,663.26 v 0.03 l 0.01,0.03 0.01,0.03 0.01,0.03 0.01,0.02 v 0.03 l 0.01,0.02 0.01,0.03 0.01,0.02 0.01,0.02 0.02,0.02 0.01,0.02 0.01,0.01 0.02,0.02 0.02,0.01 0.02,0.02 0.02,0.01 0.02,0.01 0.03,0.01 0.03,0.01 0.03,0.01 h 0.01 l 0.02,0.01 h 0.02 0.02 l 0.02,0.01 h 0.02 0.02 l 0.02,0.01 h 0.02 0.02 0.03 0.02 l 0.03,0.01 h 0.03 0.02 0.03 0.03 0.03 0.03 0.03 0.04 0.03 c 0.23,0 0.32,0 0.32,0.2 0,0.11 -0.1,0.11 -0.27,0.11 h -1.31 c -0.26,0 -0.27,0 -0.39,-0.19 l -3.64,-5.66 -0.78,5.62 c -0.03,0.23 -0.05,0.23 -0.31,0.23 h -1.37 c -0.19,0 -0.3,0 -0.3,-0.19 0,-0.12 0.09,-0.12 0.3,-0.12 0.12,0 0.3,-0.01 0.42,-0.02 0.16,-0.02 0.22,-0.05 0.22,-0.16 0,-0.04 -0.01,-0.07 -0.04,-0.19 l -1.26,-5.05 c -0.1,-0.4 -0.27,-0.72 -1.08,-0.75 -0.05,0 -0.18,-0.01 -0.18,-0.19 0,-0.08 0.06,-0.12 0.14,-0.12 0.32,0 0.67,0.04 1,0.04 0.34,0 0.7,-0.04 1.02,-0.04 0.05,0 0.18,0 0.18,0.2 0,0.11 -0.11,0.11 -0.18,0.11 -0.57,0.01 -0.67,0.21 -0.67,0.44 0,0.07 0.01,0.12 0.04,0.23 l 1.35,5.41 h 0.01 l 0.86,-6.16 c 0.02,-0.12 0.03,-0.23 0.15,-0.23 0.11,0 0.17,0.11 0.22,0.18 l 4.03,6.29 h 0.01 l -1.43,-5.69 c -0.1,-0.39 -0.12,-0.47 -0.91,-0.47 -0.17,0 -0.28,0 -0.28,-0.19 0,-0.12 0.12,-0.12 0.15,-0.12 0.28,0 0.96,0.04 1.24,0.04 0.41,0 0.84,-0.04 1.25,-0.04 0.06,0 0.19,0 0.19,0.2 0,0.11 -0.09,0.11 -0.28,0.11 -0.37,0 -0.65,0 -0.65,0.18 0,0.04 0,0.06 0.05,0.24 z"
         inkscape:connector-curvature="0"
         style="fill:#000000;stroke-width:0" /><path
         id="path3963"
         d="m 197.93,659.95 v 0.09 l -0.01,0.1 -0.01,0.09 -0.01,0.09 -0.02,0.08 -0.02,0.09 -0.03,0.08 -0.02,0.08 -0.04,0.07 -0.03,0.07 -0.04,0.07 -0.04,0.07 -0.04,0.07 -0.05,0.06 -0.05,0.06 -0.05,0.05 -0.06,0.06 -0.05,0.05 -0.06,0.04 -0.07,0.05 -0.06,0.04 -0.07,0.03 -0.07,0.04 -0.07,0.03 -0.07,0.03 -0.08,0.02 -0.07,0.02 -0.08,0.02 -0.08,0.01 -0.08,0.01 h -0.08 l -0.09,0.01 c -1.33,0 -2.67,-1.41 -2.67,-2.83 0,-0.98 0.67,-1.67 1.6,-1.67 l 0.01,0.21 c -0.43,0 -0.87,0.31 -0.87,1.09 0,0.48 0.26,1.56 0.58,2.06 0.5,0.77 1.06,0.92 1.34,0.92 0.58,0 0.88,-0.48 0.88,-1.08 0,-0.38 -0.2,-1.43 -0.58,-2.07 -0.35,-0.58 -0.89,-0.92 -1.35,-0.92 v 0 l -0.01,-0.21 c 1.32,0 2.67,1.37 2.67,2.82 z"
         inkscape:connector-curvature="0"
         style="fill:#000000;stroke-width:0" /><path
         id="path3965"
         d="m 203.23,664.02 v 0 0 0 0.01 0 0 0 l -0.01,0.01 v 0 0.01 0 0 0.01 0 0.01 h -0.01 v 0.01 0 l -0.01,0.01 v 0 l -0.01,0.01 v 0 0 0 l -0.01,0.01 v 0 0 h -0.01 v 0 0.01 h -0.01 v 0 0 h -0.01 v 0 h -0.01 v 0 l -0.01,0.01 v 0 h -0.01 v 0 h -0.01 v 0 h -0.01 v 0 c -0.15,0 -1.1,-0.09 -1.27,-0.11 -0.08,-0.01 -0.14,-0.06 -0.14,-0.19 0,-0.12 0.09,-0.12 0.24,-0.12 0.48,0 0.5,-0.07 0.5,-0.17 l -0.03,-0.2 -0.6,-2.35 c -0.18,0.37 -0.47,0.64 -0.92,0.64 -1.16,0 -2.4,-1.47 -2.4,-2.91 0,-0.94 0.55,-1.59 1.33,-1.59 l 0.02,0.21 c -0.5,0 -0.64,0.55 -0.64,0.94 0,0.5 0.32,1.72 0.55,2.17 0.3,0.59 0.75,0.96 1.15,0.96 0.65,0 0.79,-0.82 0.79,-0.88 0,-0.06 -0.02,-0.12 -0.03,-0.17 l -0.5,-1.94 c -0.05,-0.18 -0.05,-0.2 -0.2,-0.37 -0.44,-0.55 -0.85,-0.71 -1.12,-0.71 l -0.02,-0.21 c 0.2,0 0.69,0.03 1.29,0.74 0.08,-0.42 0.43,-0.74 0.91,-0.74 0.35,0 0.58,0.22 0.74,0.54 0.17,0.36 0.3,0.97 0.3,0.99 0,0.1 -0.09,0.1 -0.12,0.1 -0.1,0 -0.11,-0.04 -0.14,-0.18 -0.17,-0.65 -0.35,-1.24 -0.76,-1.24 -0.27,0 -0.3,0.26 -0.3,0.46 0,0.24 0.02,0.31 0.06,0.48 z"
         inkscape:connector-curvature="0"
         style="fill:#000000;stroke-width:0" /><path
         id="path3967"
         d="m 206.76,657.79 0.01,-0.04 0.01,-0.03 0.01,-0.04 0.02,-0.03 0.01,-0.04 0.02,-0.03 0.02,-0.03 0.02,-0.03 0.02,-0.03 0.02,-0.03 0.03,-0.03 0.02,-0.03 0.03,-0.02 0.02,-0.03 0.03,-0.02 0.03,-0.02 0.03,-0.03 0.03,-0.02 0.03,-0.01 0.03,-0.02 0.04,-0.02 0.03,-0.01 0.03,-0.02 0.04,-0.01 0.04,-0.01 0.03,-0.01 0.04,-0.01 h 0.04 l 0.04,-0.01 h 0.03 0.04 0.04 c 0.35,0 0.58,0.22 0.74,0.54 0.17,0.36 0.3,0.97 0.3,0.99 0,0.1 -0.09,0.1 -0.12,0.1 -0.1,0 -0.11,-0.04 -0.14,-0.18 -0.14,-0.56 -0.33,-1.24 -0.75,-1.24 -0.21,0 -0.3,0.13 -0.3,0.46 0,0.22 0.11,0.69 0.19,1.03 l 0.28,1.08 c 0.03,0.15 0.13,0.52 0.17,0.67 0.05,0.23 0.15,0.61 0.15,0.67 0,0.18 -0.14,0.27 -0.29,0.27 -0.05,0 -0.31,-0.01 -0.39,-0.35 -0.19,-0.73 -0.62,-2.46 -0.74,-2.99 -0.01,-0.04 -0.41,-0.84 -1.14,-0.84 -0.52,0 -0.62,0.45 -0.62,0.82 0,0.56 0.28,1.34 0.54,2.02 0.12,0.3 0.17,0.44 0.17,0.63 0,0.45 -0.32,0.82 -0.82,0.82 -0.95,0 -1.32,-1.45 -1.32,-1.53 0,-0.1 0.1,-0.1 0.13,-0.1 0.09,0 0.11,0.02 0.15,0.17 0.25,0.87 0.63,1.24 1.01,1.24 0.09,0 0.25,-0.01 0.25,-0.33 0,-0.24 -0.11,-0.53 -0.17,-0.68 -0.37,-0.98 -0.58,-1.6 -0.58,-2.08 0,-0.95 0.69,-1.19 1.23,-1.19 0.66,0 1.02,0.44 1.19,0.66 z"
         inkscape:connector-curvature="0"
         style="fill:#000000;stroke-width:0" /><path
         id="path3969"
         d="m 211.54,664.02 v 0 0 0 0.01 0 0 0 0.01 0 0.01 0 0 0.01 h -0.01 v 0.01 0 0.01 h -0.01 v 0.01 0 l -0.01,0.01 v 0 0 h -0.01 v 0.01 0 h -0.01 v 0 0 l -0.01,0.01 v 0 0 h -0.01 v 0 h -0.01 v 0 0 l -0.01,0.01 v 0 h -0.01 v 0 h -0.01 -0.01 v 0 h -0.01 c -0.23,0 -0.95,-0.08 -1.21,-0.1 -0.08,-0.01 -0.19,-0.02 -0.19,-0.21 0,-0.11 0.1,-0.11 0.25,-0.11 0.48,0 0.48,-0.09 0.48,-0.17 l -0.03,-0.2 -1.25,-4.96 c -0.03,-0.11 -0.05,-0.18 -0.05,-0.34 0,-0.57 0.44,-0.91 0.91,-0.91 0.33,0 0.57,0.19 0.74,0.55 0.18,0.38 0.3,0.96 0.3,0.98 0,0.1 -0.09,0.1 -0.12,0.1 -0.1,0 -0.11,-0.04 -0.14,-0.18 -0.17,-0.65 -0.36,-1.24 -0.75,-1.24 -0.3,0 -0.3,0.32 -0.3,0.46 0,0.24 0.01,0.29 0.06,0.48 z"
         inkscape:connector-curvature="0"
         style="fill:#000000;stroke-width:0" /><path
         id="path3971"
         d="m 214.01,659.53 h 0.03 0.03 0.03 0.04 0.03 0.04 0.04 l 0.05,0.01 h 0.04 0.05 0.05 l 0.05,0.01 h 0.05 l 0.05,0.01 0.1,0.01 0.11,0.01 0.11,0.01 0.11,0.02 0.1,0.02 0.11,0.03 0.05,0.01 0.06,0.02 0.05,0.01 0.05,0.02 0.04,0.02 0.05,0.02 c 0.7,0.3 0.75,0.88 0.75,1.02 0,0.44 -0.38,0.85 -1.07,0.85 v -0.22 c 0.47,0 0.74,-0.29 0.74,-0.63 0,-1.03 -1.59,-1.03 -2,-1.03 h -0.41 c 0.39,1.51 1.41,1.66 1.67,1.66 v 0.22 c -1.1,0 -2.61,-0.97 -2.61,-2.71 0,-1.01 0.59,-1.79 1.57,-1.79 1.42,0 2.26,1.05 2.26,1.17 0,0.06 -0.06,0.13 -0.12,0.13 -0.05,0 -0.07,-0.02 -0.13,-0.1 -0.79,-0.99 -1.87,-0.99 -1.99,-0.99 -0.78,0 -0.87,0.84 -0.87,1.16 0,0.12 0.01,0.42 0.16,1.03 z"
         inkscape:connector-curvature="0"
         style="fill:#000000;stroke-width:0" /></g>    <g
       id="content"
       transform="matrix(1.198987,0.000000,0.000000,-1.198987,-119.998196,817.424395)"
       xml:space="preserve"
       stroke="black"
       stroke-linecap="butt"
       stroke-linejoin="miter"
       stroke-miterlimit="10.433"
       stroke-dasharray="none"
       stroke-dashoffset="0"
       stroke-opacity="1"
       fill="none"
       fill-rule="evenodd"
       fill-opacity="1"
       font-style="normal"
       font-variant="normal"
       font-weight="normal"
       font-stretch="normal"
       font-size-adjust="none"
       letter-spacing="normal"
       word-spacing="normal"
       text-anchor="start"
       ns0:version="0.8.1"
       ns0:texconverter="pdflatex"
       ns0:pdfconverter="pstoedit"
       ns0:text="$PLL_1$"
       ns0:preamble="/home/newtonis/.config/inkscape/extensions/default_packages.tex"
       ns0:scale="3.39870201657"
       ns0:alignment="middle center"
       inkscapeversion="0.92.2"
       ns0:jacobian_sqrt="1.198987"
       style="stroke:#000000;stroke-opacity:1;fill-opacity:1"><path
         d="M151.73,660.37 L151.77,660.63 L152.45,663.33 C152.54,663.68,152.56,663.71,152.99,663.71 H153.95 C154.77,663.71,155.3,663.44,155.3,662.76 C155.3,662.37,155.1,661.52,154.71,661.16 C154.22,660.71,153.62,660.63,153.18,660.63 H151.77 L151.73,660.37 H153.43 C154.85,660.37,156.23,661.41,156.23,662.52 C156.23,663.28,155.57,664.02,154.27,664.02 H151.04 C150.85,664.02,150.74,664.02,150.74,663.83 C150.74,663.71,150.83,663.71,151.03,663.71 C151.15,663.71,151.34,663.7,151.45,663.69 C151.61,663.67,151.67,663.64,151.67,663.53 C151.67,663.49,151.66,663.46,151.63,663.34 L150.3,658.01 C150.2,657.62,150.18,657.54,149.39,657.54 C149.22,657.54,149.11,657.54,149.11,657.35 C149.11,657.23,149.23,657.23,149.26,657.23 C149.54,657.23,150.25,657.27,150.53,657.27 C150.74,657.27,150.96,657.26,151.16,657.26 C151.38,657.26,151.6,657.23,151.81,657.23 C151.88,657.23,152.01,657.23,152.01,657.43 C152.01,657.54,151.92,657.54,151.73,657.54 C151.37,657.54,151.09,657.54,151.09,657.72 C151.09,657.78,151.1,657.83,151.12,657.89 Z "
         stroke-width="0"
         fill="black"
         style="stroke:#000000;stroke-opacity:1;fill-opacity:1"
         id="path4101" /><path
         d="M160.22,663.24 L160.23,663.28 L160.24,663.31 L160.25,663.34 L160.25,663.37 L160.26,663.4 L160.27,663.42 L160.28,663.45 L160.29,663.47 L160.31,663.49 L160.32,663.51 L160.33,663.53 L160.35,663.55 L160.37,663.57 L160.39,663.58 L160.41,663.6 L160.43,663.61 L160.46,663.63 L160.49,663.64 L160.52,663.65 L160.56,663.66 L160.58,663.66 L160.59,663.67 L160.62,663.67 L160.64,663.68 L160.66,663.68 L160.68,663.68 L160.71,663.69 L160.73,663.69 L160.76,663.69 L160.78,663.69 L160.81,663.7 L160.84,663.7 L160.87,663.7 L160.9,663.7 L160.93,663.71 L160.97,663.71 L161,663.71 L161.04,663.71 L161.08,663.71 L161.11,663.71 L161.15,663.71 L161.19,663.71 L161.24,663.71 L161.28,663.71 C161.58,663.71,161.66,663.71,161.66,663.9 C161.66,664.02,161.55,664.02,161.5,664.02 C161.17,664.02,160.35,663.99,160.02,663.99 C159.72,663.99,159,664.02,158.7,664.02 C158.63,664.02,158.51,664.02,158.51,663.82 C158.51,663.71,158.6,663.71,158.79,663.71 C158.81,663.71,159,663.71,159.16,663.69 C159.35,663.67,159.43,663.66,159.43,663.53 C159.43,663.49,159.43,663.46,159.4,663.34 L158.06,658.01 C157.96,657.62,157.94,657.54,157.15,657.54 C156.98,657.54,156.88,657.54,156.88,657.34 C156.88,657.23,156.97,657.23,157.15,657.23 H161.77 C162.01,657.23,162.02,657.23,162.08,657.4 L162.87,659.55 C162.9,659.66,162.9,659.68,162.9,659.69 C162.9,659.73,162.88,659.8,162.79,659.8 C162.7,659.8,162.68,659.75,162.62,659.59 C162.28,658.67,161.84,657.54,160.11,657.54 H159.18 C159.04,657.54,159.02,657.54,158.96,657.55 C158.86,657.56,158.83,657.57,158.83,657.65 C158.83,657.68,158.83,657.7,158.88,657.88 Z "
         stroke-width="0"
         fill="black"
         style="stroke:#000000;stroke-opacity:1;fill-opacity:1"
         id="path4103" /><path
         d="M167,663.24 L167.01,663.28 L167.02,663.31 L167.03,663.34 L167.04,663.37 L167.04,663.4 L167.05,663.42 L167.06,663.45 L167.07,663.47 L167.09,663.49 L167.1,663.51 L167.11,663.53 L167.13,663.55 L167.15,663.57 L167.17,663.58 L167.19,663.6 L167.21,663.61 L167.24,663.63 L167.27,663.64 L167.3,663.65 L167.34,663.66 L167.36,663.66 L167.38,663.67 L167.4,663.67 L167.42,663.68 L167.44,663.68 L167.46,663.68 L167.49,663.69 L167.51,663.69 L167.54,663.69 L167.57,663.69 L167.59,663.7 L167.62,663.7 L167.65,663.7 L167.68,663.7 L167.72,663.71 L167.75,663.71 L167.78,663.71 L167.82,663.71 L167.86,663.71 L167.89,663.71 L167.93,663.71 L167.97,663.71 L168.02,663.71 L168.06,663.71 C168.36,663.71,168.44,663.71,168.44,663.9 C168.44,664.02,168.33,664.02,168.28,664.02 C167.95,664.02,167.13,663.99,166.8,663.99 C166.5,663.99,165.78,664.02,165.48,664.02 C165.41,664.02,165.29,664.02,165.29,663.82 C165.29,663.71,165.38,663.71,165.57,663.71 C165.59,663.71,165.78,663.71,165.95,663.69 C166.12,663.67,166.21,663.66,166.21,663.53 C166.21,663.49,166.21,663.46,166.18,663.34 L164.84,658.01 C164.74,657.62,164.72,657.54,163.93,657.54 C163.76,657.54,163.66,657.54,163.66,657.34 C163.66,657.23,163.75,657.23,163.93,657.23 H168.55 C168.79,657.23,168.8,657.23,168.86,657.4 L169.65,659.55 C169.68,659.66,169.68,659.68,169.68,659.69 C169.68,659.73,169.65,659.8,169.57,659.8 C169.48,659.8,169.47,659.75,169.4,659.59 C169.06,658.67,168.62,657.54,166.89,657.54 H165.96 C165.82,657.54,165.8,657.54,165.74,657.55 C165.64,657.56,165.61,657.57,165.61,657.65 C165.61,657.68,165.61,657.7,165.66,657.88 Z "
         stroke-width="0"
         fill="black"
         style="stroke:#000000;stroke-opacity:1;fill-opacity:1"
         id="path4105" /><path
         d="M172.39,660.16 L172.39,660.17 L172.39,660.18 L172.39,660.19 L172.39,660.2 L172.39,660.2 L172.39,660.21 L172.39,660.22 L172.39,660.23 L172.39,660.23 L172.39,660.24 L172.39,660.25 L172.39,660.25 L172.39,660.26 L172.39,660.26 L172.39,660.27 L172.39,660.27 L172.39,660.28 L172.39,660.28 L172.38,660.29 L172.38,660.3 L172.38,660.31 L172.38,660.31 L172.37,660.32 L172.37,660.33 L172.36,660.33 L172.36,660.34 L172.35,660.34 L172.34,660.34 L172.34,660.35 L172.33,660.35 L172.32,660.35 L172.31,660.35 L172.31,660.35 L172.3,660.35 L172.29,660.35 L172.29,660.36 L172.28,660.36 L172.28,660.36 L172.27,660.36 L172.26,660.36 L172.26,660.36 L172.25,660.36 L172.24,660.36 L172.24,660.36 L172.23,660.36 L172.22,660.36 L172.21,660.36 L172.2,660.36 L172.19,660.36 L172.18,660.36 C171.74,659.92,171.1,659.91,170.81,659.91 V659.66 C170.98,659.66,171.44,659.66,171.83,659.86 V656.31 C171.83,656.08,171.83,655.99,171.13,655.99 H170.86 V655.74 C170.99,655.75,171.85,655.77,172.11,655.77 C172.32,655.77,173.21,655.75,173.36,655.74 V655.99 H173.09 C172.39,655.99,172.39,656.08,172.39,656.31 Z "
         stroke-width="0"
         fill="black"
         style="stroke:#000000;stroke-opacity:1;fill-opacity:1"
         id="path4107" /></g>    <rect
       inkscape:export-ydpi="410"
       inkscape:export-xdpi="410"
       ry="0.73499119"
       rx="0.73499119"
       y="44.585789"
       x="56.37619"
       height="13.629366"
       width="33.805099"
       id="rect1769-3"
       style="fill:#e6e6e6;fill-opacity:1;fill-rule:nonzero;stroke:#0d0d0d;stroke-width:0.69999999;stroke-miterlimit:4;stroke-dasharray:0.70000001, 0.70000001;stroke-dashoffset:0;stroke-opacity:1;paint-order:markers stroke fill" />
    <g
       style="font-style:normal;font-variant:normal;font-weight:normal;font-stretch:normal;letter-spacing:normal;word-spacing:normal;text-anchor:start;fill:none;fill-opacity:1;fill-rule:evenodd;stroke:#000000;stroke-linecap:butt;stroke-linejoin:miter;stroke-miterlimit:10.43299961;stroke-dasharray:none;stroke-dashoffset:0;stroke-opacity:1"
       ns0:jacobian_sqrt="1.198987"
       inkscapeversion="0.92.2"
       ns0:alignment="middle center"
       ns0:scale="3.39870201657"
       ns0:preamble="/home/newtonis/.config/inkscape/extensions/default_packages.tex"
       ns0:text="$PLL_2$"
       ns0:pdfconverter="pstoedit"
       ns0:texconverter="pdflatex"
       ns0:version="0.8.1"
       word-spacing="normal"
       letter-spacing="normal"
       font-size-adjust="none"
       font-stretch="normal"
       font-weight="normal"
       font-variant="normal"
       font-style="normal"
       stroke-miterlimit="10.433"
       xml:space="preserve"
       transform="matrix(1.198987,0,0,-1.198987,-120.07731,842.77699)"
       id="g4293"><path
         id="path4285"
         style="fill:#000000;fill-opacity:1;stroke:#000000;stroke-width:0;stroke-opacity:1"
         d="m 151.73,660.37 0.04,0.26 0.68,2.7 c 0.09,0.35 0.11,0.38 0.54,0.38 h 0.96 c 0.82,0 1.35,-0.27 1.35,-0.95 0,-0.39 -0.2,-1.24 -0.59,-1.6 -0.49,-0.45 -1.09,-0.53 -1.53,-0.53 h -1.41 l -0.04,-0.26 h 1.7 c 1.42,0 2.8,1.04 2.8,2.15 0,0.76 -0.66,1.5 -1.96,1.5 h -3.23 c -0.19,0 -0.3,0 -0.3,-0.19 0,-0.12 0.09,-0.12 0.29,-0.12 0.12,0 0.31,-0.01 0.42,-0.02 0.16,-0.02 0.22,-0.05 0.22,-0.16 0,-0.04 -0.01,-0.07 -0.04,-0.19 l -1.33,-5.33 c -0.1,-0.39 -0.12,-0.47 -0.91,-0.47 -0.17,0 -0.28,0 -0.28,-0.19 0,-0.12 0.12,-0.12 0.15,-0.12 0.28,0 0.99,0.04 1.27,0.04 0.21,0 0.43,-0.01 0.63,-0.01 0.22,0 0.44,-0.03 0.65,-0.03 0.07,0 0.2,0 0.2,0.2 0,0.11 -0.09,0.11 -0.28,0.11 -0.36,0 -0.64,0 -0.64,0.18 0,0.06 0.01,0.11 0.03,0.17 z"
         inkscape:connector-curvature="0" /><path
         id="path4287"
         style="fill:#000000;fill-opacity:1;stroke:#000000;stroke-width:0;stroke-opacity:1"
         d="m 160.22,663.24 0.01,0.04 0.01,0.03 0.01,0.03 v 0.03 l 0.01,0.03 0.01,0.02 0.01,0.03 0.01,0.02 0.02,0.02 0.01,0.02 0.01,0.02 0.02,0.02 0.02,0.02 0.02,0.01 0.02,0.02 0.02,0.01 0.03,0.02 0.03,0.01 0.03,0.01 0.04,0.01 h 0.02 l 0.01,0.01 h 0.03 l 0.02,0.01 h 0.02 0.02 l 0.03,0.01 h 0.02 0.03 0.02 l 0.03,0.01 h 0.03 0.03 0.03 l 0.03,0.01 h 0.04 0.03 0.04 0.04 0.03 0.04 0.04 0.05 0.04 c 0.3,0 0.38,0 0.38,0.19 0,0.12 -0.11,0.12 -0.16,0.12 -0.33,0 -1.15,-0.03 -1.48,-0.03 -0.3,0 -1.02,0.03 -1.32,0.03 -0.07,0 -0.19,0 -0.19,-0.2 0,-0.11 0.09,-0.11 0.28,-0.11 0.02,0 0.21,0 0.37,-0.02 0.19,-0.02 0.27,-0.03 0.27,-0.16 0,-0.04 0,-0.07 -0.03,-0.19 l -1.34,-5.33 c -0.1,-0.39 -0.12,-0.47 -0.91,-0.47 -0.17,0 -0.27,0 -0.27,-0.2 0,-0.11 0.09,-0.11 0.27,-0.11 h 4.62 c 0.24,0 0.25,0 0.31,0.17 l 0.79,2.15 c 0.03,0.11 0.03,0.13 0.03,0.14 0,0.04 -0.02,0.11 -0.11,0.11 -0.09,0 -0.11,-0.05 -0.17,-0.21 -0.34,-0.92 -0.78,-2.05 -2.51,-2.05 h -0.93 c -0.14,0 -0.16,0 -0.22,0.01 -0.1,0.01 -0.13,0.02 -0.13,0.1 0,0.03 0,0.05 0.05,0.23 z"
         inkscape:connector-curvature="0" /><path
         id="path4289"
         style="fill:#000000;fill-opacity:1;stroke:#000000;stroke-width:0;stroke-opacity:1"
         d="m 167,663.24 0.01,0.04 0.01,0.03 0.01,0.03 0.01,0.03 v 0.03 l 0.01,0.02 0.01,0.03 0.01,0.02 0.02,0.02 0.01,0.02 0.01,0.02 0.02,0.02 0.02,0.02 0.02,0.01 0.02,0.02 0.02,0.01 0.03,0.02 0.03,0.01 0.03,0.01 0.04,0.01 h 0.02 l 0.02,0.01 h 0.02 l 0.02,0.01 h 0.02 0.02 l 0.03,0.01 h 0.02 0.03 0.03 l 0.02,0.01 h 0.03 0.03 0.03 l 0.04,0.01 h 0.03 0.03 0.04 0.04 0.03 0.04 0.04 0.05 0.04 c 0.3,0 0.38,0 0.38,0.19 0,0.12 -0.11,0.12 -0.16,0.12 -0.33,0 -1.15,-0.03 -1.48,-0.03 -0.3,0 -1.02,0.03 -1.32,0.03 -0.07,0 -0.19,0 -0.19,-0.2 0,-0.11 0.09,-0.11 0.28,-0.11 0.02,0 0.21,0 0.38,-0.02 0.17,-0.02 0.26,-0.03 0.26,-0.16 0,-0.04 0,-0.07 -0.03,-0.19 l -1.34,-5.33 c -0.1,-0.39 -0.12,-0.47 -0.91,-0.47 -0.17,0 -0.27,0 -0.27,-0.2 0,-0.11 0.09,-0.11 0.27,-0.11 h 4.62 c 0.24,0 0.25,0 0.31,0.17 l 0.79,2.15 c 0.03,0.11 0.03,0.13 0.03,0.14 0,0.04 -0.03,0.11 -0.11,0.11 -0.09,0 -0.1,-0.05 -0.17,-0.21 -0.34,-0.92 -0.78,-2.05 -2.51,-2.05 h -0.93 c -0.14,0 -0.16,0 -0.22,0.01 -0.1,0.01 -0.13,0.02 -0.13,0.1 0,0.03 0,0.05 0.05,0.23 z"
         inkscape:connector-curvature="0" /><path
         id="path4291"
         style="fill:#000000;fill-opacity:1;stroke:#000000;stroke-width:0;stroke-opacity:1"
         d="m 173.58,657.01 h -0.23 c -0.03,-0.16 -0.1,-0.57 -0.19,-0.64 -0.05,-0.04 -0.59,-0.04 -0.69,-0.04 h -1.29 c 0.74,0.65 0.98,0.84 1.4,1.17 0.52,0.41 1,0.84 1,1.5 0,0.84 -0.74,1.36 -1.63,1.36 -0.87,0 -1.46,-0.61 -1.46,-1.25 0,-0.35 0.3,-0.39 0.37,-0.39 0.17,0 0.37,0.12 0.37,0.37 0,0.13 -0.05,0.37 -0.41,0.37 0.22,0.5 0.69,0.65 1.02,0.65 0.7,0 1.06,-0.54 1.06,-1.11 0,-0.6 -0.43,-1.08 -0.65,-1.33 l -1.69,-1.66 c -0.07,-0.06 -0.07,-0.07 -0.07,-0.27 h 2.88 z"
         inkscape:connector-curvature="0" /></g>    <path
       style="fill:none;stroke:#000000;stroke-width:0.69999999;stroke-linecap:butt;stroke-linejoin:miter;stroke-miterlimit:4;stroke-dasharray:none;stroke-opacity:1;marker-end:url(#marker4378)"
       d="m 47.010788,51.311903 c 0,0 7.9375,0 7.9375,0"
       id="path4372"
       inkscape:connector-curvature="0"
       inkscape:path-effect="#path-effect4374"
       inkscape:original-d="m 47.010788,51.311903 7.9375,0"
       sodipodi:nodetypes="cc" />
    <path
       style="fill:none;stroke:#000000;stroke-width:0.69999999;stroke-linecap:butt;stroke-linejoin:miter;stroke-miterlimit:4;stroke-dasharray:none;stroke-opacity:1"
       d="m 47.152529,51.666256 c 0,0 0,-25.391713 0,-25.391713"
       id="path4470"
       inkscape:connector-curvature="0"
       inkscape:path-effect="#path-effect4472"
       inkscape:original-d="M 47.152529,51.666256 V 26.274543" />
    <path
       inkscape:export-ydpi="410"
       inkscape:export-xdpi="410"
       style="fill:none;stroke:#000000;stroke-width:0.69999993;stroke-linecap:butt;stroke-linejoin:miter;stroke-miterlimit:4;stroke-dasharray:none;stroke-opacity:1;marker-end:url(#Arrow2Mend-3-2)"
       d="m 90.372094,51.889166 c 0,0 14.367166,0 14.367166,0"
       id="path1792-5-9"
       inkscape:connector-curvature="0"
       inkscape:path-effect="#path-effect1794-7-0"
       inkscape:original-d="M 90.372094,51.889166 H 104.73926" />
    <g
       style="font-style:normal;font-variant:normal;font-weight:normal;font-stretch:normal;letter-spacing:normal;word-spacing:normal;text-anchor:start;fill:none;fill-opacity:1;fill-rule:evenodd;stroke:#000000;stroke-width:1.30009735;stroke-linecap:butt;stroke-linejoin:miter;stroke-miterlimit:10.43299961;stroke-dasharray:none;stroke-dashoffset:0;stroke-opacity:1"
       id="g5248"
       transform="matrix(0.92222861,0,0,-0.92222859,-52.68149,677.14251)"
       xml:space="preserve"
       stroke-miterlimit="10.433"
       font-style="normal"
       font-variant="normal"
       font-weight="normal"
       font-stretch="normal"
       font-size-adjust="none"
       letter-spacing="normal"
       word-spacing="normal"
       ns0:version="0.8.1"
       ns0:texconverter="pdflatex"
       ns0:pdfconverter="pstoedit"
       ns0:text="$1Khz$"
       ns0:preamble="/home/newtonis/.config/inkscape/extensions/default_packages.tex"
       ns0:scale="3.39870201657"
       ns0:alignment="middle center"
       inkscapeversion="0.92.2"
       ns0:jacobian_sqrt="1.198987"><path
         style="fill:#000000;stroke-width:0"
         inkscape:connector-curvature="0"
         d="m 151.64,663.59 v 0.01 0.01 0.02 0.01 0 0.01 0.01 0.01 0.01 0.01 0.01 0.01 0 0.01 0.01 0 0.01 0.01 0.01 l -0.01,0.01 v 0.01 0.01 l -0.01,0.01 v 0 0.01 l -0.01,0.01 h -0.01 v 0.01 h -0.01 l -0.01,0.01 h -0.01 v 0 h -0.01 v 0 h -0.01 v 0 l -0.01,0.01 h -0.01 v 0 h -0.01 -0.01 v 0 h -0.01 -0.01 -0.01 -0.01 -0.01 -0.01 -0.01 -0.01 -0.01 -0.01 c -0.61,-0.63 -1.49,-0.63 -1.81,-0.63 v -0.31 c 0.2,0 0.79,0 1.31,0.25 v -5.14 c 0,-0.36 -0.03,-0.48 -0.93,-0.48 h -0.32 v -0.31 c 0.35,0.04 1.22,0.04 1.61,0.04 0.4,0 1.27,0 1.62,-0.04 v 0.31 h -0.32 c -0.9,0 -0.93,0.11 -0.93,0.48 z"
         id="path5240" /><path
         style="fill:#000000;stroke-width:0"
         inkscape:connector-curvature="0"
         d="m 158.77,661.25 v 0 0 0.01 h -0.01 v 0.01 0 0 0.01 0 l -0.01,0.01 v 0 0.01 0.01 l -0.01,0.01 v 0.01 0 l -0.01,0.01 v 0 0.01 0 0.01 0 l -0.01,0.01 v 0 0 0.01 0 0 0.01 c 0,0.01 0.18,0.15 0.29,0.23 l 1.74,1.34 c 0.94,0.68 1.33,0.72 1.63,0.75 0.08,0.01 0.18,0.02 0.18,0.2 0,0.04 -0.03,0.11 -0.11,0.11 -0.22,0 -0.47,-0.03 -0.71,-0.03 -0.36,0 -0.75,0.03 -1.11,0.03 -0.06,0 -0.18,0 -0.18,-0.2 0,-0.07 0.04,-0.1 0.12,-0.11 0.21,-0.02 0.3,-0.07 0.3,-0.21 0,-0.18 -0.3,-0.4 -0.36,-0.45 l -3.88,-2.98 0.79,3.19 c 0.09,0.35 0.11,0.45 0.84,0.45 0.25,0 0.34,0 0.34,0.2 0,0.09 -0.08,0.11 -0.14,0.11 -0.28,0 -1,-0.03 -1.28,-0.03 -0.28,0 -0.99,0.03 -1.28,0.03 -0.07,0 -0.2,0 -0.2,-0.19 0,-0.12 0.09,-0.12 0.29,-0.12 0.13,0 0.31,-0.01 0.43,-0.02 0.16,-0.02 0.22,-0.05 0.22,-0.16 0,-0.04 -0.01,-0.07 -0.04,-0.19 l -1.34,-5.33 c -0.1,-0.39 -0.12,-0.47 -0.91,-0.47 -0.17,0 -0.28,0 -0.28,-0.19 0,-0.12 0.12,-0.12 0.15,-0.12 0.28,0 0.99,0.04 1.27,0.04 0.21,0 0.43,-0.01 0.64,-0.01 0.22,0 0.44,-0.03 0.64,-0.03 0.08,0 0.21,0 0.21,0.2 0,0.11 -0.1,0.11 -0.28,0.11 -0.37,0 -0.65,0 -0.65,0.18 0,0.07 0.06,0.29 0.09,0.44 0.14,0.51 0.27,1.04 0.4,1.56 l 1.48,1.15 1.16,-2.67 c 0.12,-0.27 0.12,-0.29 0.12,-0.35 0,-0.3 -0.43,-0.31 -0.52,-0.31 -0.11,0 -0.22,0 -0.22,-0.2 0,-0.11 0.12,-0.11 0.14,-0.11 0.4,0 0.82,0.04 1.22,0.04 0.22,0 0.76,-0.04 0.97,-0.04 0.05,0 0.18,0 0.18,0.2 0,0.11 -0.11,0.11 -0.2,0.11 -0.41,0.01 -0.53,0.1 -0.68,0.45 z"
         id="path5242" /><path
         style="fill:#000000;stroke-width:0"
         inkscape:connector-curvature="0"
         d="m 165.73,664.02 v 0 0 h -0.01 v 0.01 0 0 0 0.01 0 0.01 0 0 0.01 0 l -0.01,0.01 v 0 0.01 0 l -0.01,0.01 v 0 l -0.01,0.01 v 0 0 0 l -0.01,0.01 v 0 0 h -0.01 v 0 0.01 h -0.01 v 0 0 h -0.01 v 0 h -0.01 v 0 l -0.01,0.01 v 0 h -0.01 v 0 h -0.01 v 0 h -0.01 v 0 c -0.23,0 -0.96,-0.08 -1.22,-0.1 -0.08,-0.01 -0.19,-0.02 -0.19,-0.2 0,-0.12 0.09,-0.12 0.24,-0.12 0.48,0 0.5,-0.07 0.5,-0.17 l -0.03,-0.2 -1.45,-5.72 c -0.04,-0.14 -0.04,-0.16 -0.04,-0.22 0,-0.23 0.2,-0.27 0.29,-0.27 0.16,0 0.32,0.11 0.37,0.25 l 0.19,0.76 0.22,0.89 c 0.06,0.22 0.12,0.44 0.17,0.67 0.02,0.06 0.1,0.39 0.11,0.45 0.03,0.08 0.34,0.64 0.67,0.91 0.22,0.16 0.53,0.35 0.96,0.35 0.43,0 0.54,-0.34 0.54,-0.7 0,-0.54 -0.38,-1.62 -0.62,-2.22 -0.08,-0.23 -0.13,-0.35 -0.13,-0.55 0,-0.47 0.35,-0.81 0.82,-0.81 0.94,0 1.31,1.45 1.31,1.53 0,0.1 -0.09,0.1 -0.12,0.1 -0.1,0 -0.1,-0.04 -0.15,-0.18 -0.15,-0.53 -0.47,-1.24 -1.02,-1.24 -0.17,0 -0.24,0.1 -0.24,0.33 0,0.25 0.09,0.49 0.18,0.71 0.16,0.42 0.61,1.61 0.61,2.18 0,0.65 -0.4,1.07 -1.15,1.07 -0.63,0 -1.1,-0.31 -1.47,-0.77 z"
         id="path5244" /><path
         style="fill:#000000;stroke-width:0"
         inkscape:connector-curvature="0"
         d="m 169.93,658.06 0.05,0.05 0.05,0.05 0.04,0.05 0.05,0.05 0.04,0.05 0.05,0.04 0.04,0.04 0.04,0.05 0.04,0.04 0.04,0.04 0.04,0.03 0.04,0.04 0.03,0.04 0.04,0.03 0.07,0.07 0.07,0.06 0.06,0.06 0.07,0.06 0.06,0.06 0.13,0.11 0.07,0.05 0.07,0.06 c 0,0.01 0.61,0.54 0.97,0.9 0.95,0.92 1.17,1.4 1.17,1.44 0,0.1 -0.09,0.1 -0.11,0.1 -0.07,0 -0.1,-0.02 -0.15,-0.11 -0.3,-0.48 -0.51,-0.64 -0.75,-0.64 -0.24,0 -0.36,0.15 -0.51,0.32 -0.19,0.23 -0.36,0.43 -0.68,0.43 -0.75,0 -1.21,-0.93 -1.21,-1.14 0,-0.05 0.03,-0.11 0.12,-0.11 0.09,0 0.11,0.05 0.13,0.11 0.19,0.46 0.77,0.47 0.85,0.47 0.21,0 0.4,-0.07 0.62,-0.15 0.4,-0.15 0.51,-0.15 0.77,-0.15 -0.36,-0.43 -1.19,-1.14 -1.38,-1.3 l -0.9,-0.83 c -0.68,-0.67 -1.03,-1.24 -1.03,-1.31 0,-0.09 0.1,-0.09 0.12,-0.09 0.08,0 0.1,0.02 0.16,0.13 0.23,0.34 0.53,0.61 0.85,0.61 0.23,0 0.33,-0.09 0.58,-0.38 0.17,-0.21 0.35,-0.36 0.64,-0.36 0.98,0 1.56,1.26 1.56,1.53 0,0.05 -0.04,0.1 -0.12,0.1 -0.09,0 -0.11,-0.06 -0.14,-0.13 -0.23,-0.65 -0.87,-0.84 -1.19,-0.84 -0.2,0 -0.38,0.06 -0.59,0.13 -0.34,0.13 -0.49,0.17 -0.7,0.17 -0.02,0 -0.18,0 -0.27,-0.03 z"
         id="path5246" /></g>    <g
       style="font-style:normal;font-variant:normal;font-weight:normal;font-stretch:normal;letter-spacing:normal;word-spacing:normal;text-anchor:start;fill:none;fill-opacity:1;fill-rule:evenodd;stroke:#000000;stroke-linecap:butt;stroke-linejoin:miter;stroke-miterlimit:10.43299961;stroke-dasharray:none;stroke-dashoffset:0;stroke-opacity:1"
       ns0:jacobian_sqrt="0.871792"
       inkscapeversion="0.92.2"
       ns0:alignment="middle center"
       ns0:scale="2.47121924591"
       ns0:preamble="/home/newtonis/.config/inkscape/extensions/default_packages.tex"
       ns0:text="$Clock\\;Module$"
       ns0:pdfconverter="pstoedit"
       ns0:texconverter="pdflatex"
       ns0:version="0.8.1"
       word-spacing="normal"
       letter-spacing="normal"
       font-size-adjust="none"
       font-stretch="normal"
       font-weight="normal"
       font-variant="normal"
       font-style="normal"
       stroke-miterlimit="10.433"
       xml:space="preserve"
       transform="matrix(0.871792,0,0,-0.871792,-20.092916,627.40006)"
       id="g5499"><path
         id="path5477"
         style="fill:#000000;fill-opacity:1;stroke:#000000;stroke-width:0;stroke-opacity:1"
         d="m 156.29,664.14 v 0 0.01 0 0 0.01 0 0 0.01 0 l -0.01,0.01 v 0 0 0.01 0 l -0.01,0.01 v 0 0 l -0.01,0.01 v 0 0 l -0.01,0.01 v 0 h -0.01 v 0.01 h -0.01 v 0 h -0.01 v 0 0 h -0.01 v 0 0.01 h -0.01 v 0 0 h -0.01 v 0 0 h -0.01 c -0.03,0 -0.04,-0.01 -0.15,-0.12 l -0.7,-0.77 c -0.09,0.14 -0.54,0.89 -1.65,0.89 -2.23,0 -4.47,-2.2 -4.47,-4.5 0,-1.64 1.18,-2.72 2.7,-2.72 0.87,0 1.63,0.39 2.16,0.85 0.92,0.81 1.09,1.72 1.09,1.75 0,0.1 -0.1,0.1 -0.12,0.1 -0.06,0 -0.11,-0.02 -0.13,-0.1 -0.09,-0.29 -0.31,-0.99 -1,-1.57 -0.69,-0.56 -1.32,-0.73 -1.84,-0.73 -0.89,0 -1.95,0.52 -1.95,2.07 0,0.57 0.21,2.18 1.2,3.34 0.61,0.7 1.55,1.2 2.44,1.2 1.01,0 1.6,-0.77 1.6,-1.92 0,-0.39 -0.03,-0.4 -0.03,-0.5 0,-0.1 0.11,-0.1 0.15,-0.1 0.13,0 0.13,0.02 0.18,0.2 z"
         inkscape:connector-curvature="0" /><path
         id="path5479"
         style="fill:#000000;fill-opacity:1;stroke:#000000;stroke-width:0;stroke-opacity:1"
         d="m 159.12,664.02 v 0 0 0 0.01 0 0 0 0.01 0 0.01 0 0 0.01 h -0.01 v 0.01 0 0.01 h -0.01 v 0.01 h -0.01 v 0.01 0 0 h -0.01 v 0.01 0 h -0.01 v 0 0 l -0.01,0.01 v 0 0 h -0.01 v 0 h -0.01 v 0 0 l -0.01,0.01 v 0 h -0.01 v 0 H 159.01 159 v 0 h -0.01 c -0.23,0 -0.95,-0.08 -1.21,-0.1 -0.08,-0.01 -0.19,-0.02 -0.19,-0.21 0,-0.11 0.1,-0.11 0.25,-0.11 0.48,0 0.48,-0.09 0.48,-0.17 l -0.03,-0.2 -1.25,-4.96 c -0.03,-0.11 -0.05,-0.18 -0.05,-0.34 0,-0.57 0.44,-0.91 0.91,-0.91 0.33,0 0.57,0.19 0.74,0.55 0.18,0.38 0.3,0.96 0.3,0.98 0,0.1 -0.09,0.1 -0.12,0.1 -0.1,0 -0.11,-0.04 -0.14,-0.18 -0.17,-0.65 -0.36,-1.24 -0.75,-1.24 -0.3,0 -0.3,0.32 -0.3,0.46 0,0.24 0.01,0.29 0.06,0.48 z"
         inkscape:connector-curvature="0" /><path
         id="path5481"
         style="fill:#000000;fill-opacity:1;stroke:#000000;stroke-width:0;stroke-opacity:1"
         d="m 164.39,659.95 v 0.09 l -0.01,0.1 -0.01,0.09 -0.01,0.09 -0.02,0.08 -0.02,0.09 -0.03,0.08 -0.02,0.08 -0.04,0.07 -0.03,0.07 -0.04,0.07 -0.04,0.07 -0.04,0.07 -0.05,0.06 -0.05,0.06 -0.05,0.05 -0.06,0.06 -0.05,0.05 -0.06,0.04 -0.07,0.05 -0.06,0.04 -0.07,0.03 -0.07,0.04 -0.07,0.03 -0.07,0.03 -0.08,0.02 -0.07,0.02 -0.08,0.02 -0.08,0.01 -0.08,0.01 h -0.08 l -0.09,0.01 c -1.33,0 -2.67,-1.41 -2.67,-2.83 0,-0.98 0.67,-1.67 1.6,-1.67 l 0.01,0.21 c -0.43,0 -0.87,0.31 -0.87,1.09 0,0.48 0.26,1.56 0.58,2.06 0.49,0.77 1.06,0.92 1.34,0.92 0.58,0 0.88,-0.48 0.88,-1.08 0,-0.38 -0.2,-1.43 -0.58,-2.07 -0.35,-0.58 -0.9,-0.92 -1.35,-0.92 v 0 l -0.01,-0.21 c 1.32,0 2.67,1.37 2.67,2.82 z"
         inkscape:connector-curvature="0" /><path
         id="path5483"
         style="fill:#000000;fill-opacity:1;stroke:#000000;stroke-width:0;stroke-opacity:1"
         d="m 168.49,661.01 h -0.03 -0.03 -0.03 -0.03 -0.02 L 168.32,661 h -0.02 -0.01 -0.01 l -0.02,-0.01 h -0.01 -0.01 l -0.02,-0.01 h -0.01 l -0.01,-0.01 -0.02,-0.01 h -0.01 l -0.01,-0.01 -0.02,-0.01 h -0.01 l -0.01,-0.01 -0.02,-0.01 -0.01,-0.01 -0.01,-0.01 -0.02,-0.02 -0.01,-0.01 c -0.16,-0.15 -0.18,-0.32 -0.18,-0.39 0,-0.24 0.18,-0.34 0.37,-0.34 0.29,0 0.56,0.23 0.56,0.63 0,0.49 -0.47,0.86 -1.18,0.86 -1.34,0 -2.67,-1.42 -2.67,-2.83 0,-0.89 0.58,-1.67 1.62,-1.67 1.42,0 2.26,1.05 2.26,1.17 0,0.06 -0.06,0.13 -0.12,0.13 -0.05,0 -0.07,-0.02 -0.13,-0.1 -0.79,-0.99 -1.87,-0.99 -1.99,-0.99 -0.63,0 -0.9,0.49 -0.9,1.09 0,0.4 0.2,1.37 0.54,1.98 0.31,0.57 0.85,1 1.4,1 0.34,0 0.72,-0.13 0.86,-0.4 z"
         inkscape:connector-curvature="0" /><path
         id="path5485"
         style="fill:#000000;fill-opacity:1;stroke:#000000;stroke-width:0;stroke-opacity:1"
         d="m 171.71,664.02 v 0 0 0 0.01 0 0 0 0.01 0 0.01 0 0 0.01 0 l -0.01,0.01 v 0 0.01 h -0.01 v 0.01 0 l -0.01,0.01 v 0 0 h -0.01 v 0.01 0 0 h -0.01 v 0 0.01 h -0.01 v 0 h -0.01 v 0 0 h -0.01 v 0 l -0.01,0.01 v 0 h -0.01 v 0 h -0.01 v 0 h -0.01 v 0 c -0.24,0 -0.96,-0.08 -1.22,-0.1 -0.08,-0.01 -0.19,-0.02 -0.19,-0.2 0,-0.12 0.09,-0.12 0.24,-0.12 0.48,0 0.5,-0.07 0.5,-0.17 l -0.03,-0.2 -1.45,-5.72 c -0.04,-0.14 -0.04,-0.16 -0.04,-0.22 0,-0.23 0.2,-0.27 0.29,-0.27 0.13,0 0.28,0.09 0.34,0.2 0.05,0.09 0.5,1.93 0.56,2.18 0.34,-0.03 1.15,-0.19 1.15,-0.85 0,-0.06 0,-0.1 -0.03,-0.2 -0.02,-0.12 -0.04,-0.24 -0.04,-0.35 0,-0.59 0.4,-0.98 0.92,-0.98 0.3,0 0.57,0.15 0.79,0.52 0.25,0.44 0.36,0.99 0.36,1.01 0,0.1 -0.09,0.1 -0.12,0.1 -0.1,0 -0.11,-0.04 -0.14,-0.18 -0.2,-0.73 -0.43,-1.24 -0.87,-1.24 -0.19,0 -0.32,0.11 -0.32,0.47 0,0.17 0.04,0.4 0.08,0.56 0.04,0.17 0.04,0.21 0.04,0.3 0,0.65 -0.63,0.94 -1.47,1.05 0.31,0.18 0.63,0.5 0.85,0.73 0.48,0.53 0.94,0.96 1.43,0.96 0.06,0 0.07,0 0.09,-0.01 0.12,-0.02 0.13,-0.02 0.21,-0.08 0.02,-0.01 0.02,-0.02 0.04,-0.04 -0.48,-0.03 -0.57,-0.42 -0.57,-0.54 0,-0.16 0.11,-0.35 0.38,-0.35 0.26,0 0.55,0.22 0.55,0.61 0,0.3 -0.23,0.63 -0.68,0.63 -0.28,0 -0.74,-0.08 -1.46,-0.88 -0.33,-0.38 -0.72,-0.77 -1.1,-0.92 z"
         inkscape:connector-curvature="0" /><path
         id="path5487"
         style="fill:#000000;fill-opacity:1;stroke:#000000;stroke-width:0;stroke-opacity:1"
         d="m 186.35,663.26 0.01,0.03 0.01,0.03 0.01,0.03 v 0.03 l 0.01,0.02 0.01,0.03 0.01,0.02 0.01,0.03 0.01,0.02 0.01,0.02 0.01,0.02 0.01,0.02 0.02,0.01 0.02,0.02 0.01,0.01 0.02,0.02 0.02,0.01 0.03,0.01 0.02,0.01 0.03,0.01 0.03,0.01 h 0.02 l 0.02,0.01 h 0.01 0.02 l 0.02,0.01 h 0.02 0.02 l 0.02,0.01 h 0.03 0.02 0.02 0.03 l 0.02,0.01 h 0.03 0.03 0.03 0.03 0.03 0.03 0.03 0.03 0.04 c 0.23,0 0.32,0 0.32,0.2 0,0.11 -0.1,0.11 -0.27,0.11 h -1.32 c -0.26,0 -0.27,0 -0.39,-0.19 l -3.64,-5.66 -0.77,5.62 c -0.03,0.23 -0.05,0.23 -0.31,0.23 h -1.37 c -0.19,0 -0.3,0 -0.3,-0.19 0,-0.12 0.09,-0.12 0.29,-0.12 0.13,0 0.31,-0.01 0.43,-0.02 0.16,-0.02 0.22,-0.05 0.22,-0.16 0,-0.04 -0.01,-0.07 -0.04,-0.19 l -1.27,-5.05 c -0.1,-0.4 -0.27,-0.72 -1.07,-0.75 -0.05,0 -0.18,-0.01 -0.18,-0.19 0,-0.08 0.06,-0.12 0.14,-0.12 0.31,0 0.66,0.04 0.99,0.04 0.34,0 0.7,-0.04 1.03,-0.04 0.05,0 0.18,0 0.18,0.2 0,0.11 -0.11,0.11 -0.18,0.11 -0.57,0.01 -0.68,0.21 -0.68,0.44 0,0.07 0.01,0.12 0.04,0.23 l 1.36,5.41 h 0.01 l 0.86,-6.16 c 0.02,-0.12 0.03,-0.23 0.14,-0.23 0.11,0 0.17,0.11 0.22,0.18 l 4.03,6.29 h 0.01 l -1.42,-5.69 c -0.1,-0.39 -0.12,-0.47 -0.91,-0.47 -0.17,0 -0.28,0 -0.28,-0.19 0,-0.12 0.12,-0.12 0.15,-0.12 0.28,0 0.96,0.04 1.24,0.04 0.41,0 0.83,-0.04 1.24,-0.04 0.06,0 0.19,0 0.19,0.2 0,0.11 -0.09,0.11 -0.28,0.11 -0.36,0 -0.64,0 -0.64,0.18 0,0.04 0,0.06 0.04,0.24 z"
         inkscape:connector-curvature="0" /><path
         id="path5489"
         style="fill:#000000;fill-opacity:1;stroke:#000000;stroke-width:0;stroke-opacity:1"
         d="m 192.55,659.95 v 0.09 0.1 l -0.01,0.09 -0.02,0.09 -0.01,0.08 -0.03,0.09 -0.02,0.08 -0.03,0.08 -0.03,0.07 -0.03,0.07 -0.04,0.07 -0.04,0.07 -0.05,0.07 -0.04,0.06 -0.05,0.06 -0.06,0.05 -0.05,0.06 -0.06,0.05 -0.06,0.04 -0.06,0.05 -0.07,0.04 -0.06,0.03 -0.07,0.04 -0.07,0.03 -0.08,0.03 -0.07,0.02 -0.08,0.02 -0.07,0.02 -0.08,0.01 -0.09,0.01 h -0.08 l -0.08,0.01 c -1.34,0 -2.67,-1.41 -2.67,-2.83 0,-0.98 0.67,-1.67 1.59,-1.67 l 0.01,0.21 c -0.43,0 -0.87,0.31 -0.87,1.09 0,0.48 0.26,1.56 0.58,2.06 0.5,0.77 1.07,0.92 1.35,0.92 0.58,0 0.88,-0.48 0.88,-1.08 0,-0.38 -0.2,-1.43 -0.58,-2.07 -0.35,-0.58 -0.9,-0.92 -1.36,-0.92 v 0 l -0.01,-0.21 c 1.33,0 2.67,1.37 2.67,2.82 z"
         inkscape:connector-curvature="0" /><path
         id="path5491"
         style="fill:#000000;fill-opacity:1;stroke:#000000;stroke-width:0;stroke-opacity:1"
         d="m 197.85,664.02 v 0 0 0 0.01 0 0 0 0.01 0 0.01 0 0 0.01 h -0.01 v 0.01 0 0.01 h -0.01 v 0.01 0 l -0.01,0.01 v 0 0 h -0.01 v 0.01 0 h -0.01 v 0 0 l -0.01,0.01 v 0 0 h -0.01 v 0 h -0.01 v 0 0 l -0.01,0.01 v 0 h -0.01 v 0 h -0.01 -0.01 v 0 h -0.01 c -0.15,0 -1.09,-0.09 -1.26,-0.11 -0.08,-0.01 -0.14,-0.06 -0.14,-0.19 0,-0.12 0.09,-0.12 0.24,-0.12 0.48,0 0.49,-0.07 0.49,-0.17 l -0.03,-0.2 -0.59,-2.35 c -0.18,0.37 -0.47,0.64 -0.92,0.64 -1.17,0 -2.4,-1.47 -2.4,-2.91 0,-0.94 0.54,-1.59 1.32,-1.59 l 0.02,0.21 c -0.5,0 -0.64,0.55 -0.64,0.94 0,0.5 0.32,1.72 0.55,2.17 0.31,0.59 0.76,0.96 1.16,0.96 0.65,0 0.79,-0.82 0.79,-0.88 0,-0.06 -0.02,-0.12 -0.03,-0.17 l -0.5,-1.94 c -0.05,-0.18 -0.05,-0.2 -0.2,-0.37 -0.44,-0.55 -0.85,-0.71 -1.13,-0.71 l -0.02,-0.21 c 0.2,0 0.7,0.03 1.3,0.74 0.08,-0.42 0.43,-0.74 0.91,-0.74 0.35,0 0.57,0.22 0.73,0.54 0.17,0.36 0.3,0.97 0.3,0.99 0,0.1 -0.09,0.1 -0.12,0.1 -0.1,0 -0.11,-0.04 -0.14,-0.18 -0.17,-0.65 -0.34,-1.24 -0.75,-1.24 -0.27,0 -0.3,0.26 -0.3,0.46 0,0.24 0.02,0.31 0.06,0.48 z"
         inkscape:connector-curvature="0" /><path
         id="path5493"
         style="fill:#000000;fill-opacity:1;stroke:#000000;stroke-width:0;stroke-opacity:1"
         d="m 201.38,657.79 0.01,-0.04 0.02,-0.03 0.01,-0.04 0.01,-0.03 0.02,-0.04 0.02,-0.03 0.02,-0.03 0.02,-0.03 0.02,-0.03 0.02,-0.03 0.02,-0.03 0.03,-0.03 0.02,-0.02 0.03,-0.03 0.03,-0.02 0.03,-0.02 0.03,-0.03 0.03,-0.02 0.03,-0.01 0.03,-0.02 0.03,-0.02 0.04,-0.01 0.03,-0.02 0.04,-0.01 0.03,-0.01 0.04,-0.01 0.04,-0.01 h 0.03 l 0.04,-0.01 h 0.04 0.04 0.04 c 0.35,0 0.58,0.22 0.74,0.54 0.17,0.36 0.3,0.97 0.3,0.99 0,0.1 -0.09,0.1 -0.12,0.1 -0.1,0 -0.11,-0.04 -0.14,-0.18 -0.14,-0.56 -0.33,-1.24 -0.75,-1.24 -0.21,0 -0.31,0.13 -0.31,0.46 0,0.22 0.12,0.69 0.2,1.03 l 0.28,1.08 c 0.03,0.15 0.13,0.52 0.17,0.67 0.05,0.23 0.15,0.61 0.15,0.67 0,0.18 -0.14,0.27 -0.29,0.27 -0.05,0 -0.31,-0.01 -0.39,-0.35 -0.19,-0.73 -0.63,-2.46 -0.75,-2.99 -0.01,-0.04 -0.41,-0.84 -1.13,-0.84 -0.52,0 -0.62,0.45 -0.62,0.82 0,0.56 0.28,1.34 0.54,2.02 0.12,0.3 0.17,0.44 0.17,0.63 0,0.45 -0.32,0.82 -0.82,0.82 -0.95,0 -1.32,-1.45 -1.32,-1.53 0,-0.1 0.1,-0.1 0.12,-0.1 0.1,0 0.11,0.02 0.16,0.17 0.25,0.87 0.63,1.24 1.01,1.24 0.09,0 0.25,-0.01 0.25,-0.33 0,-0.24 -0.11,-0.53 -0.17,-0.68 -0.37,-0.98 -0.58,-1.6 -0.58,-2.08 0,-0.95 0.69,-1.19 1.23,-1.19 0.65,0 1.01,0.44 1.18,0.66 z"
         inkscape:connector-curvature="0" /><path
         id="path5495"
         style="fill:#000000;fill-opacity:1;stroke:#000000;stroke-width:0;stroke-opacity:1"
         d="m 206.17,664.02 v 0 0 0 0.01 0 0 0 0.01 0 0.01 0 h -0.01 v 0.01 0 0.01 0 l -0.01,0.01 v 0 0.01 h -0.01 v 0.01 h -0.01 v 0 0 0.01 h -0.01 v 0 0 h -0.01 v 0.01 0 h -0.01 v 0 0 h -0.01 v 0 h -0.01 v 0.01 h -0.01 v 0 h -0.01 v 0 h -0.01 v 0 h -0.01 c -0.23,0 -0.96,-0.08 -1.22,-0.1 -0.08,-0.01 -0.19,-0.02 -0.19,-0.21 0,-0.11 0.1,-0.11 0.25,-0.11 0.48,0 0.49,-0.09 0.49,-0.17 l -0.03,-0.2 -1.25,-4.96 c -0.04,-0.11 -0.05,-0.18 -0.05,-0.34 0,-0.57 0.43,-0.91 0.9,-0.91 0.33,0 0.58,0.19 0.75,0.55 0.18,0.38 0.3,0.96 0.3,0.98 0,0.1 -0.09,0.1 -0.12,0.1 -0.1,0 -0.11,-0.04 -0.14,-0.18 -0.17,-0.65 -0.36,-1.24 -0.76,-1.24 -0.3,0 -0.3,0.32 -0.3,0.46 0,0.24 0.01,0.29 0.06,0.48 z"
         inkscape:connector-curvature="0" /><path
         id="path5497"
         style="fill:#000000;fill-opacity:1;stroke:#000000;stroke-width:0;stroke-opacity:1"
         d="m 208.62,659.53 h 0.03 0.03 0.04 0.03 0.04 0.04 0.04 l 0.04,0.01 h 0.05 0.04 0.05 l 0.05,0.01 h 0.05 l 0.05,0.01 0.11,0.01 0.1,0.01 0.11,0.01 0.11,0.02 0.11,0.02 0.11,0.03 0.05,0.01 0.05,0.02 0.05,0.01 0.05,0.02 0.05,0.02 0.05,0.02 c 0.7,0.3 0.75,0.88 0.75,1.02 0,0.44 -0.38,0.85 -1.07,0.85 v -0.22 c 0.47,0 0.74,-0.29 0.74,-0.63 0,-1.03 -1.6,-1.03 -2.01,-1.03 h -0.41 c 0.39,1.51 1.42,1.66 1.68,1.66 v 0.22 c -1.11,0 -2.61,-0.97 -2.61,-2.71 0,-1.01 0.58,-1.79 1.56,-1.79 1.43,0 2.27,1.05 2.27,1.17 0,0.06 -0.06,0.13 -0.12,0.13 -0.05,0 -0.07,-0.02 -0.13,-0.1 -0.79,-0.99 -1.88,-0.99 -2,-0.99 -0.78,0 -0.87,0.84 -0.87,1.16 0,0.12 0.02,0.42 0.16,1.03 z"
         inkscape:connector-curvature="0" /></g>    <path
       inkscape:export-ydpi="410"
       inkscape:export-xdpi="410"
       inkscape:original-d="M 96.080476,62.449463 V 54.442904"
       inkscape:path-effect="#path-effect3680-5"
       inkscape:connector-curvature="0"
       id="path3678-9"
       d="m 96.080476,62.449463 c 0,0 0,-8.006559 0,-8.006559"
       style="fill:none;stroke:#000000;stroke-width:0.26458332px;stroke-linecap:butt;stroke-linejoin:miter;stroke-opacity:1;marker-end:url(#marker3684-3)" />
  </g>
</svg>
